<?xml version="1.0" encoding="iso-8859-1"?>
<!-- Generator: Adobe Illustrator 18.1.1, SVG Export Plug-In . SVG Version: 6.00 Build 0)  -->
<svg version="1.1" id="Capa_1" xmlns="http://www.w3.org/2000/svg" xmlns:xlink="http://www.w3.org/1999/xlink" x="0px" y="0px"
	 viewBox="0 0 25.8 25.8" style="enable-background:new 0 0 25.8 25.8;" xml:space="preserve">
<g>
	<path style="fill:#010002;" d="M24.405,20.061l1.136-1.136c-1.13-1.131-2.503-1.867-3.95-2.22l-0.007-0.007l-0.004,0.004
		c-0.926-0.224-1.882-0.295-2.827-0.204c0.236-2.424-0.569-4.932-2.426-6.788c-1.852-1.852-4.35-2.657-6.767-2.426
		C9.967,4.709,9.187,1.983,7.201,0L6.065,1.137c0.185,0.184,0.35,0.381,0.509,0.581L1.977,6.314C1.777,6.155,1.58,5.99,1.396,5.805
		L0.259,6.941c1.984,1.985,4.71,2.768,7.285,2.36c-0.231,2.418,0.574,4.915,2.426,6.768c1.856,1.857,4.362,2.662,6.786,2.428
		c-0.413,2.579,0.371,5.314,2.36,7.303l1.136-1.138c-0.164-0.165-0.308-0.339-0.452-0.517l4.329-4.329
		C24.221,19.899,24.318,19.973,24.405,20.061z M18.304,20.609l2.442-2.442c0.173,0.031,0.344,0.074,0.516,0.117l-2.867,2.868
		C18.36,20.972,18.325,20.792,18.304,20.609z M18.463,18.155c0.57-0.094,1.149-0.109,1.724-0.058l-1.922,1.922
		C18.247,19.394,18.307,18.766,18.463,18.155z M13.828,16.595l3.026-3.025c0.053,0.165,0.093,0.332,0.133,0.499l-2.659,2.661
		C14.16,16.688,13.993,16.648,13.828,16.595z M16.682,13.111l-3.313,3.312c-0.509-0.206-0.996-0.475-1.453-0.809l3.958-3.957
		C16.208,12.115,16.475,12.602,16.682,13.111z M15.194,11.074l0.316,0.317l-3.946,3.946c-0.114-0.095-0.226-0.192-0.335-0.297
		L15.194,11.074z M9.517,12.408l3.148-3.149c0.155,0.056,0.311,0.106,0.461,0.173l-3.438,3.437
		C9.623,12.717,9.573,12.562,9.517,12.408z M12.191,9.105l-2.826,2.827c-0.269-0.975-0.327-1.995-0.158-2.986
		C10.196,8.776,11.217,8.835,12.191,9.105z M6.153,7.803C5.955,7.801,5.759,7.779,5.562,7.76l2.458-2.458
		c0.018,0.196,0.04,0.393,0.042,0.591L6.153,7.803z M5.009,7.683C4.362,7.566,3.732,7.356,3.134,7.052l4.178-4.177
		c0.304,0.597,0.514,1.227,0.631,1.873L5.009,7.683z M6.839,2.083c0.087,0.125,0.176,0.251,0.253,0.381L2.724,6.833
		C2.594,6.755,2.467,6.667,2.342,6.58L6.839,2.083z M6.818,7.769l1.21-1.211C7.997,6.909,7.949,7.26,7.864,7.604
		C7.52,7.689,7.168,7.737,6.818,7.769z M9.905,13.284l3.64-3.638c0.51,0.269,0.992,0.605,1.434,1.013l-4.06,4.062
		C10.51,14.277,10.172,13.794,9.905,13.284z M14.849,16.837l2.247-2.247c0.119,0.743,0.122,1.5-0.005,2.243
		C16.348,16.959,15.592,16.956,14.849,16.837z M19.527,23.79c-0.089-0.125-0.173-0.252-0.252-0.382l4.146-4.146l0.317,0.316
		L19.527,23.79z M19.044,23.007c-0.227-0.43-0.409-0.877-0.537-1.336l3.244-3.247c0.446,0.149,0.878,0.342,1.292,0.585
		L19.044,23.007z"/>
</g>
<g>
</g>
<g>
</g>
<g>
</g>
<g>
</g>
<g>
</g>
<g>
</g>
<g>
</g>
<g>
</g>
<g>
</g>
<g>
</g>
<g>
</g>
<g>
</g>
<g>
</g>
<g>
</g>
<g>
</g>
</svg>
