<?xml version="1.0" encoding="iso-8859-1"?>
<!-- Generator: Adobe Illustrator 16.0.0, SVG Export Plug-In . SVG Version: 6.00 Build 0)  -->
<!DOCTYPE svg PUBLIC "-//W3C//DTD SVG 1.1//EN" "http://www.w3.org/Graphics/SVG/1.1/DTD/svg11.dtd">
<svg version="1.1" id="Capa_1" xmlns="http://www.w3.org/2000/svg" xmlns:xlink="http://www.w3.org/1999/xlink" x="0px" y="0px"
	 width="381.936px" height="381.936px" viewBox="0 0 381.936 381.936" style="enable-background:new 0 0 381.936 381.936;"
	 xml:space="preserve">
<g>
	<g>
		<path d="M16.48,60.182l245.646,73.676c0.585,0.174,1.193,0.262,1.79,0.262c1.097,0,2.187-0.286,3.154-0.861l99.753-58.517
			c2.187-1.279,3.373-3.742,3.021-6.242c-0.354-2.502-2.18-4.545-4.622-5.176L119.573,0.198c-1.428-0.368-2.929-0.219-4.256,0.417
			L15.57,48.583c-2.32,1.117-3.717,3.544-3.51,6.107C12.257,57.256,14.017,59.439,16.48,60.182z M118.674,12.842l228.797,58.794
			l-84.365,49.495L35.472,52.854L118.674,12.842z"/>
		<path d="M360.514,88.722l-97.408,57.144L20.058,72.963c-3.292-0.992-6.771,0.886-7.761,4.184c-0.993,3.3,0.883,6.771,4.183,7.764
			l248.246,74.461l102.097-59.896c2.978-1.739,3.964-5.559,2.223-8.528C367.297,87.973,363.474,86.968,360.514,88.722z"/>
		<path d="M360.514,113.462l-97.408,57.146L20.058,97.707c-3.292-0.98-6.771,0.886-7.761,4.184
			c-0.993,3.297,0.883,6.771,4.183,7.764l248.24,74.455l102.097-59.896c2.978-1.742,3.964-5.562,2.222-8.531
			C367.297,112.708,363.474,111.708,360.514,113.462z"/>
		<path d="M360.514,138.19l-97.408,57.15L20.058,122.435c-3.292-0.987-6.771,0.88-7.761,4.183c-0.993,3.301,0.883,6.771,4.183,7.764
			l248.24,74.459l102.097-59.899c2.978-1.738,3.964-5.562,2.222-8.531C367.297,137.441,363.474,136.452,360.514,138.19z"/>
		<path d="M360.514,162.934l-97.408,57.146L20.058,147.169c-3.292-0.99-6.771,0.886-7.761,4.186
			c-0.993,3.298,0.883,6.771,4.183,7.761l248.24,74.465l102.097-59.896c2.978-1.741,3.964-5.562,2.222-8.531
			C367.292,162.185,363.474,161.186,360.514,162.934z"/>
		<path d="M360.514,187.662l-97.408,57.147L20.058,171.912c-3.292-0.986-6.771,0.886-7.761,4.183
			c-0.993,3.301,0.883,6.771,4.183,7.764l248.24,74.455l102.097-59.893c2.978-1.741,3.964-5.565,2.222-8.531
			C367.297,186.913,363.474,185.917,360.514,187.662z"/>
		<path d="M360.514,212.402L263.1,269.549L20.058,196.643c-3.292-0.986-6.771,0.877-7.761,4.184
			c-0.993,3.301,0.883,6.771,4.183,7.764l248.246,74.464l102.097-59.898c2.978-1.741,3.964-5.56,2.223-8.531
			C367.297,211.653,363.474,210.655,360.514,212.402z"/>
		<path d="M360.514,237.142l-97.408,57.147L20.058,221.383c-3.292-0.998-6.771,0.889-7.761,4.184
			c-0.993,3.301,0.883,6.771,4.183,7.764l248.24,74.458l102.097-59.899c2.978-1.741,3.964-5.559,2.222-8.53
			C367.297,236.387,363.474,235.395,360.514,237.142z"/>
		<path d="M360.514,261.871l-97.408,57.146L20.058,246.112c-3.292-0.98-6.771,0.889-7.761,4.184c-0.993,3.3,0.883,6.771,4.183,7.764
			l248.24,74.457l102.097-59.898c2.978-1.735,3.964-5.56,2.222-8.525C367.297,261.122,363.474,260.123,360.514,261.871z"/>
		<path d="M360.514,286.555l-97.408,57.147L20.058,270.797c-3.292-0.986-6.771,0.889-7.761,4.183
			c-0.993,3.301,0.883,6.777,4.183,7.764l248.24,74.458l102.097-59.898c2.978-1.735,3.964-5.56,2.222-8.525
			C367.297,285.807,363.474,284.814,360.514,286.555z"/>
		<path d="M360.514,311.29l-97.408,57.146L20.058,295.538c-3.292-0.993-6.771,0.883-7.761,4.183
			c-0.993,3.294,0.883,6.771,4.183,7.764l248.24,74.452l102.097-59.893c2.978-1.742,3.964-5.565,2.222-8.531
			C367.297,310.542,363.474,309.542,360.514,311.29z"/>
	</g>
</g>
<g>
</g>
<g>
</g>
<g>
</g>
<g>
</g>
<g>
</g>
<g>
</g>
<g>
</g>
<g>
</g>
<g>
</g>
<g>
</g>
<g>
</g>
<g>
</g>
<g>
</g>
<g>
</g>
<g>
</g>
</svg>
