<?xml version="1.0" encoding="UTF-8" standalone="no"?>
<!-- Created with Inkscape (http://www.inkscape.org/) -->

<svg
   xmlns:dc="http://purl.org/dc/elements/1.1/"
   xmlns:cc="http://creativecommons.org/ns#"
   xmlns:rdf="http://www.w3.org/1999/02/22-rdf-syntax-ns#"
   xmlns:svg="http://www.w3.org/2000/svg"
   xmlns="http://www.w3.org/2000/svg"
   xmlns:xlink="http://www.w3.org/1999/xlink"
   xmlns:sodipodi="http://sodipodi.sourceforge.net/DTD/sodipodi-0.dtd"
   xmlns:inkscape="http://www.inkscape.org/namespaces/inkscape"
   width="70"
   height="70"
   id="svg2"
   version="1.1"
   inkscape:version="0.48.5 r10040"
   sodipodi:docname="cells_grid.svg">
  <defs
     id="defs4">
    <linearGradient
       id="linearGradient3949">
      <stop
         style="stop-color:#dd3497;stop-opacity:0.03921569;"
         offset="0"
         id="stop3951" />
      <stop
         style="stop-color:#dd3497;stop-opacity:0.78431374;"
         offset="1"
         id="stop3953" />
    </linearGradient>
    <linearGradient
       id="linearGradient3925">
      <stop
         style="stop-color:#fc8d59;stop-opacity:0.03921569;"
         offset="0"
         id="stop3927" />
      <stop
         style="stop-color:#fc8d59;stop-opacity:0.78431374;"
         offset="1"
         id="stop3929" />
    </linearGradient>
    <linearGradient
       id="linearGradient3901">
      <stop
         style="stop-color:#c994c7;stop-opacity:0.03921569;"
         offset="0"
         id="stop3903" />
      <stop
         style="stop-color:#c994c7;stop-opacity:0.78431374;"
         offset="1"
         id="stop3905" />
    </linearGradient>
    <linearGradient
       id="linearGradient3877">
      <stop
         style="stop-color:#feb24c;stop-opacity:0.03921569;"
         offset="0"
         id="stop3879" />
      <stop
         style="stop-color:#feb24c;stop-opacity:0.78431374;"
         offset="1"
         id="stop3881" />
    </linearGradient>
    <linearGradient
       id="linearGradient3861">
      <stop
         style="stop-color:#31a354;stop-opacity:0.03921569;"
         offset="0"
         id="stop3863" />
      <stop
         style="stop-color:#31a354;stop-opacity:0.78431374;"
         offset="1"
         id="stop3865" />
    </linearGradient>
    <linearGradient
       id="linearGradient3837">
      <stop
         style="stop-color:#2b8cbe;stop-opacity:0.03921569;"
         offset="0"
         id="stop3839" />
      <stop
         style="stop-color:#2b8cbe;stop-opacity:0.78431374;"
         offset="1"
         id="stop3841" />
    </linearGradient>
    <linearGradient
       id="linearGradient3817">
      <stop
         style="stop-color:#b50e85;stop-opacity:1;"
         offset="0"
         id="stop3819" />
      <stop
         style="stop-color:#b50e85;stop-opacity:0;"
         offset="1"
         id="stop3821" />
    </linearGradient>
    <linearGradient
       id="linearGradient6782-7">
      <stop
         id="stop6784-8"
         offset="0"
         style="stop-color:#ffffff;stop-opacity:1" />
      <stop
         id="stop6786-6"
         offset="1"
         style="stop-color:#756bb1;stop-opacity:1" />
    </linearGradient>
    <radialGradient
       inkscape:collect="always"
       xlink:href="#linearGradient6802-1"
       id="radialGradient6808-1"
       gradientUnits="userSpaceOnUse"
       gradientTransform="matrix(1.0335502,0.01481998,-0.01225706,0.80310432,-10.547804,22.223221)"
       cx="271.21048"
       cy="117.69221"
       fx="271.21048"
       fy="117.69221"
       r="17.92767" />
    <linearGradient
       id="linearGradient6802-1"
       inkscape:collect="always">
      <stop
         id="stop6804-6"
         offset="0"
         style="stop-color:#ffffff;stop-opacity:1" />
      <stop
         id="stop6806-7"
         offset="1"
         style="stop-color:#756bb1;stop-opacity:1" />
    </linearGradient>
    <radialGradient
       r="17.92767"
       fy="117.69221"
       fx="271.21048"
       cy="117.69221"
       cx="271.21048"
       gradientTransform="matrix(1.0335502,0.01481998,-0.01225706,0.80310432,-10.547804,22.223221)"
       gradientUnits="userSpaceOnUse"
       id="radialGradient3208"
       xlink:href="#linearGradient6802-1"
       inkscape:collect="always" />
    <radialGradient
       inkscape:collect="always"
       xlink:href="#linearGradient6782-7"
       id="radialGradient3784"
       cx="267.99347"
       cy="120.98082"
       fx="267.99347"
       fy="120.98082"
       r="17.67767"
       gradientTransform="matrix(1,0,0,0.58999999,0,49.602137)"
       gradientUnits="userSpaceOnUse" />
    <radialGradient
       inkscape:collect="always"
       xlink:href="#linearGradient3817"
       id="radialGradient3823"
       cx="67.514542"
       cy="312.35287"
       fx="67.514542"
       fy="312.35287"
       r="13.565054"
       gradientTransform="matrix(1,0,0,0.81025591,53.75,734.62425)"
       gradientUnits="userSpaceOnUse" />
    <radialGradient
       inkscape:collect="always"
       xlink:href="#linearGradient3837"
       id="radialGradient3843"
       cx="52.1731"
       cy="296.68054"
       fx="52.1731"
       fy="296.68054"
       r="9.2157202"
       gradientTransform="matrix(1,0,0,0.88783366,-33.320165,741.79178)"
       gradientUnits="userSpaceOnUse" />
    <radialGradient
       inkscape:collect="always"
       xlink:href="#linearGradient3837"
       id="radialGradient3851"
       cx="52.936859"
       cy="293.90302"
       fx="52.936859"
       fy="293.90302"
       r="14.203086"
       gradientTransform="matrix(1,0,0,0.89977625,-33.320165,737.97027)"
       gradientUnits="userSpaceOnUse" />
    <radialGradient
       inkscape:collect="always"
       xlink:href="#linearGradient3861"
       id="radialGradient3859"
       gradientUnits="userSpaceOnUse"
       gradientTransform="matrix(1,0,0,0.88783366,127.19256,668.0978)"
       cx="52.1731"
       cy="296.68054"
       fx="52.1731"
       fy="296.68054"
       r="9.2157202" />
    <radialGradient
       inkscape:collect="always"
       xlink:href="#linearGradient3861"
       id="radialGradient3867"
       cx="35.172535"
       cy="712.04553"
       fx="35.172535"
       fy="712.04553"
       r="14.353086"
       gradientTransform="matrix(1,0,0,0.90082365,144.95689,287.2958)"
       gradientUnits="userSpaceOnUse" />
    <radialGradient
       inkscape:collect="always"
       xlink:href="#linearGradient3877"
       id="radialGradient3883"
       cx="35.172535"
       cy="735.30096"
       fx="35.172535"
       fy="735.30096"
       r="14.353086"
       gradientTransform="matrix(1,0,0,0.90082365,18.284271,369.92344)"
       gradientUnits="userSpaceOnUse" />
    <radialGradient
       inkscape:collect="always"
       xlink:href="#linearGradient3877"
       id="radialGradient3891"
       cx="34.408775"
       cy="738.07849"
       fx="34.408775"
       fy="738.07849"
       r="9.0282202"
       gradientTransform="matrix(1,0,0,0.88550416,18.284271,381.50589)"
       gradientUnits="userSpaceOnUse" />
    <radialGradient
       inkscape:collect="always"
       xlink:href="#linearGradient3901"
       id="radialGradient3899"
       gradientUnits="userSpaceOnUse"
       gradientTransform="matrix(1,0,0,0.88783366,-33.320165,771.09904)"
       cx="52.1731"
       cy="296.68054"
       fx="52.1731"
       fy="296.68054"
       r="9.2157202" />
    <radialGradient
       inkscape:collect="always"
       xlink:href="#linearGradient3901"
       id="radialGradient3907"
       cx="35.015133"
       cy="769.53973"
       fx="35.015133"
       fy="769.53973"
       r="26.376606"
       gradientTransform="matrix(1,0,0,0.7082211,-15.555839,485.10766)"
       gradientUnits="userSpaceOnUse" />
    <radialGradient
       inkscape:collect="always"
       xlink:href="#linearGradient3925"
       id="radialGradient3931"
       cx="34.516808"
       cy="807.81305"
       fx="34.516808"
       fy="807.81305"
       r="16.822439"
       gradientTransform="matrix(1,0,0,0.92124239,17.569982,256.66134)"
       gradientUnits="userSpaceOnUse" />
    <radialGradient
       inkscape:collect="always"
       xlink:href="#linearGradient3925"
       id="radialGradient3939"
       cx="34.408775"
       cy="810.68201"
       fx="34.408775"
       fy="810.68201"
       r="9.0282202"
       gradientTransform="matrix(1,0,0,0.88550416,17.569982,285.85964)"
       gradientUnits="userSpaceOnUse" />
    <radialGradient
       inkscape:collect="always"
       xlink:href="#linearGradient3949"
       id="radialGradient3947"
       gradientUnits="userSpaceOnUse"
       gradientTransform="matrix(0.70331125,0,0,0.6244234,152.59469,802.53372)"
       cx="52.1731"
       cy="296.68054"
       fx="52.1731"
       fy="296.68054"
       r="9.2157202" />
    <radialGradient
       inkscape:collect="always"
       xlink:href="#linearGradient3949"
       id="radialGradient3955"
       cx="32.934181"
       cy="840.51526"
       fx="32.934181"
       fy="840.51526"
       r="17.394518"
       gradientTransform="matrix(1,0,0,0.73550171,155.05841,365.75651)"
       gradientUnits="userSpaceOnUse" />
    <radialGradient
       inkscape:collect="always"
       xlink:href="#linearGradient3901"
       id="radialGradient5006"
       gradientUnits="userSpaceOnUse"
       gradientTransform="matrix(1,0,0,0.89977625,-100.59173,525.38031)"
       cx="52.936859"
       cy="293.90302"
       fx="52.936859"
       fy="293.90302"
       r="14.203086" />
    <radialGradient
       inkscape:collect="always"
       xlink:href="#linearGradient3901"
       id="radialGradient5008"
       gradientUnits="userSpaceOnUse"
       gradientTransform="matrix(1,0,0,0.88783366,-100.59173,529.20182)"
       cx="52.1731"
       cy="296.68054"
       fx="52.1731"
       fy="296.68054"
       r="9.2157202" />
    <radialGradient
       inkscape:collect="always"
       xlink:href="#linearGradient3837"
       id="radialGradient3064"
       gradientUnits="userSpaceOnUse"
       gradientTransform="matrix(1,0,0,0.89977625,107.99966,720.33974)"
       cx="52.936859"
       cy="293.90302"
       fx="52.936859"
       fy="293.90302"
       r="14.203086" />
    <radialGradient
       inkscape:collect="always"
       xlink:href="#linearGradient3837"
       id="radialGradient3066"
       gradientUnits="userSpaceOnUse"
       gradientTransform="matrix(1,0,0,0.88783366,107.99966,724.16125)"
       cx="52.1731"
       cy="296.68054"
       fx="52.1731"
       fy="296.68054"
       r="9.2157202" />
  </defs>
  <sodipodi:namedview
     id="base"
     pagecolor="#ffffff"
     bordercolor="#666666"
     borderopacity="1.0"
     inkscape:pageopacity="0.0"
     inkscape:pageshadow="2"
     inkscape:zoom="1.979899"
     inkscape:cx="86.22774"
     inkscape:cy="29.479269"
     inkscape:document-units="px"
     inkscape:current-layer="layer1"
     showgrid="false"
     inkscape:window-width="1261"
     inkscape:window-height="855"
     inkscape:window-x="0"
     inkscape:window-y="0"
     inkscape:window-maximized="0" />
  <metadata
     id="metadata7">
    <rdf:RDF>
      <cc:Work
         rdf:about="">
        <dc:format>image/svg+xml</dc:format>
        <dc:type
           rdf:resource="http://purl.org/dc/dcmitype/StillImage" />
        <dc:title></dc:title>
      </cc:Work>
    </rdf:RDF>
  </metadata>
  <g
     inkscape:label="Layer 1"
     inkscape:groupmode="layer"
     id="layer1"
     transform="translate(0,-982.36215)">
    <path
       style="fill:url(#radialGradient3851);fill-opacity:1;stroke:#2b8cbe;stroke-width:0.69999999;stroke-linecap:butt;stroke-linejoin:miter;stroke-miterlimit:4;stroke-opacity:1;stroke-dasharray:none"
       d="m 12.538279,992.32442 c -1.609664,1.15226 -2.9464032,2.71186 -4.0065062,4.38365 -1.339177,2.1119 -2.708853,4.44283 -2.850617,6.93953 -0.1388,2.4445 0.547457,5.0985 2.00398,7.0666 1.177051,1.5905 3.1346962,2.5251 4.9881602,3.2176 2.141094,0.8001 4.508389,1.1426 6.78774,0.9725 2.310103,-0.1723 4.66582,-0.8115 6.656923,-1.9954 2.282086,-1.357 4.358713,-3.2931 5.653089,-5.6113 1.248931,-2.2368 2.0087,-4.9358 1.747413,-7.48433 -0.25128,-2.4509 -1.360096,-4.96859 -3.106065,-6.70685 -1.557535,-1.55066 -3.855018,-2.24436 -5.995222,-2.74433 -2.247548,-0.52505 -4.655159,-0.64444 -6.921133,-0.20567 -1.770797,0.34288 -3.49112,1.11812 -4.957762,2.168 z"
       id="path3825"
       inkscape:connector-curvature="0"
       sodipodi:nodetypes="aaaaaaaaaaaaa" />
    <path
       sodipodi:nodetypes="aaaaaaaaaaa"
       inkscape:connector-curvature="0"
       id="path3827"
       d="m 16.457102,997.79697 c -1.861814,0.5996 -3.509287,1.956 -4.709625,3.50043 -0.995338,1.2806 -1.7569332,2.8815 -1.8488802,4.5008 -0.09003,1.5855 0.3550772,3.3069 1.2997602,4.5834 0.763424,1.0315 2.033131,1.6377 3.23527,2.0869 1.388691,0.5189 2.924095,0.741 4.402459,0.6307 1.498308,-0.1118 3.026202,-0.5263 4.317612,-1.2942 1.480136,-0.8801 2.882052,-2.1065 3.666535,-3.6394 0.783959,-1.532 1.296145,-3.4495 0.806598,-5.0993 -0.659483,-2.2225 -2.546982,-4.20593 -4.657569,-5.16503 -1.976508,-0.8981 -4.445686,-0.7698 -6.51216,-0.1043 z"
       style="fill:url(#radialGradient3843);fill-opacity:1;stroke:#2b8cbe;stroke-width:0.1;stroke-linecap:butt;stroke-linejoin:miter;stroke-miterlimit:4;stroke-opacity:1;stroke-dasharray:none" />
    <path
       style="fill:url(#radialGradient3883);fill-opacity:1;stroke:#feb24c;stroke-width:0.80000001;stroke-linecap:butt;stroke-linejoin:miter;stroke-miterlimit:4;stroke-opacity:1;stroke-dasharray:none"
       d="m 46.378387,1022.2072 c -1.60966,1.1522 -2.9464,2.7118 -4.006505,4.3836 -1.339177,2.1119 -2.708853,4.4428 -2.850617,6.9395 -0.1388,2.4445 0.547457,5.0985 2.00398,7.0666 1.177051,1.5904 3.134702,2.525 4.988162,3.2176 2.14109,0.8001 4.50839,1.1426 6.78774,0.9725 2.3101,-0.1723 4.66582,-0.8115 6.65692,-1.9954 2.28209,-1.357 4.35872,-3.2932 5.65309,-5.6113 1.24893,-2.2368 2.0087,-4.9358 1.74741,-7.4843 -0.25128,-2.4509 -1.36009,-4.9686 -3.10606,-6.7068 -1.55754,-1.5507 -3.85502,-2.2444 -5.99522,-2.7444 -2.24755,-0.525 -4.65516,-0.6444 -6.92114,-0.2056 -1.77079,0.3428 -3.49112,1.1181 -4.95776,2.168 z"
       id="path3869"
       inkscape:connector-curvature="0"
       sodipodi:nodetypes="aaaaaaaaaaaaa" />
    <path
       sodipodi:nodetypes="aaaaaaaaaaa"
       inkscape:connector-curvature="0"
       id="path3871"
       d="m 50.297217,1027.6797 c -1.86182,0.5996 -3.50929,1.956 -4.70963,3.5003 -0.99534,1.2807 -1.75693,2.8816 -1.84888,4.5009 -0.09,1.5855 0.35508,3.3069 1.29976,4.5833 0.76342,1.0316 2.03313,1.6378 3.23527,2.087 1.38869,0.5189 2.9241,0.741 4.40246,0.6307 1.49831,-0.1118 3.0262,-0.5263 4.31761,-1.2942 1.48014,-0.8802 2.88205,-2.1065 3.66654,-3.6394 0.78396,-1.532 1.29614,-3.4495 0.80659,-5.0993 -0.65948,-2.2225 -2.54698,-4.2059 -4.65756,-5.165 -1.97651,-0.8981 -4.44569,-0.7698 -6.51216,-0.1043 z"
       style="fill:url(#radialGradient3891);fill-opacity:1;stroke:#feb24c;stroke-width:0.1;stroke-linecap:butt;stroke-linejoin:miter;stroke-miterlimit:4;stroke-opacity:1;stroke-dasharray:none" />
    <path
       sodipodi:nodetypes="saassasaaaassaaasaasaaas"
       inkscape:connector-curvature="0"
       id="path3893"
       d="m 5.6898818,1013.8076 c -2.292994,1.2394 4.301491,8.6557 3.734748,13.1899 -0.207445,1.6597 -1.114245,3.4264 -2.513317,4.343 -1.558731,1.0212 -5.4825102,-0.8075 -5.5542624,0.6349 -0.074028,1.4881 3.0944504,0.8092 4.2628134,1.8517 1.358834,1.2124 4.189993,5.2216 3.672415,8.1587 -0.511979,2.9054 -7.4219934,5.5344 -6.172553,6.3426 1.149338,0.7434 4.040896,-2.3654 6.268423,-3.0021 3.2480262,-0.9285 6.7363272,-0.5864 10.0728872,-1.1147 2.698594,-0.4273 5.299714,-1.8247 8.026917,-1.6593 3.360153,0.2037 6.222274,3.5741 9.570388,3.2244 3.179208,-0.332 9.542654,-3.0704 8.258862,-4.8734 -1.15527,-1.6225 -3.958909,3.813 -8.567951,3.4161 -2.655685,-0.2287 -5.090362,-3.1841 -5.48328,-5.8205 -0.267576,-1.7954 1.370124,-3.3967 2.416008,-4.8804 1.450234,-2.0571 3.794196,-3.3744 5.247872,-5.4292 2.229197,-3.1509 6.520438,-9.701 5.172006,-10.36 -1.586649,-0.7755 -3.789057,8.4435 -7.729434,9.6611 -2.573494,0.7953 -6.133859,-0.1906 -7.727795,-2.3619 -2.63041,-3.5832 1.836464,-13.0949 0.102676,-13.3348 -2.778429,-0.3845 -0.672366,8.4666 -3.813302,10.419 -1.920172,1.1936 -4.484457,-0.821 -6.743482,-0.7286 -2.457087,0.1004 -5.008303,2.4092 -7.245575,1.3884 -3.1775722,-1.4497 -3.7812002,-9.8616 -5.2550642,-9.0649 z"
       style="fill:url(#radialGradient3907);fill-opacity:1;stroke:#c994c7;stroke-width:0.69999999;stroke-linecap:butt;stroke-linejoin:miter;stroke-miterlimit:4;stroke-opacity:1;stroke-dasharray:none" />
    <path
       style="fill:url(#radialGradient3899);fill-opacity:1;stroke:#c994c7;stroke-width:0.1;stroke-linecap:butt;stroke-linejoin:miter;stroke-miterlimit:4;stroke-opacity:1;stroke-dasharray:none"
       d="m 16.457102,1027.1043 c -1.861814,0.5996 -3.509287,1.956 -4.709625,3.5003 -0.995338,1.2806 -1.7569332,2.8816 -1.8488802,4.5009 -0.09003,1.5854 0.3550772,3.3069 1.2997602,4.5833 0.763424,1.0316 2.033131,1.6378 3.23527,2.087 1.388691,0.5189 2.924095,0.741 4.402459,0.6307 1.498308,-0.1118 3.026202,-0.5263 4.317612,-1.2942 1.480136,-0.8802 2.882052,-2.1065 3.666535,-3.6394 0.783959,-1.532 1.296145,-3.4496 0.806598,-5.0993 -0.659483,-2.2225 -2.546982,-4.2059 -4.657569,-5.165 -1.976508,-0.8981 -4.445686,-0.7698 -6.51216,-0.1043 z"
       id="path3895"
       inkscape:connector-curvature="0"
       sodipodi:nodetypes="aaaaaaaaaaa" />
    <path
       sodipodi:nodetypes="sssssssssssss"
       inkscape:connector-curvature="0"
       id="path3917"
       d="m 43.699812,987.81591 c -2.13323,1.4244 -0.83686,5.1551 -2.04222,7.4193 -1.54363,2.89986 -6.0381,2.67506 -6.04323,5.96009 -0.005,2.8623 3.51765,5.7279 5.1966,8.0461 1.47239,2.033 1.57911,5.5172 3.91673,6.4319 2.53691,0.9927 5.15055,-0.5617 7.85917,-0.8528 2.62587,-0.2822 5.59542,1.782 7.90692,0.5045 2.69261,-1.488 2.93454,-6.7969 4.40309,-9.5002 1.35549,-2.4952 4.22947,-3.7137 3.56376,-6.47413 -0.63205,-2.621 -2.46968,-4.07996 -4.27838,-6.07926 -1.88186,-2.0803 -1.43611,-6.3215 -4.03093,-7.3872 -2.45831,-1.0096 -6.88118,2.5775 -9.52946,2.7994 -2.31728,0.1941 -4.98815,-2.1591 -6.92205,-0.8677 z"
       style="fill:url(#radialGradient3931);fill-opacity:1;stroke:#fc8d59;stroke-width:0.69999999;stroke-linecap:butt;stroke-linejoin:miter;stroke-miterlimit:4;stroke-opacity:1;stroke-dasharray:none" />
    <path
       style="fill:url(#radialGradient3939);fill-opacity:1;stroke:#fc8d59;stroke-width:0.1;stroke-linecap:butt;stroke-linejoin:miter;stroke-miterlimit:4;stroke-opacity:1;stroke-dasharray:none"
       d="m 49.582922,996.32413 c -1.86181,0.59964 -3.50928,1.95604 -4.70962,3.50044 -0.99534,1.28063 -1.75694,2.88153 -1.84888,4.50083 -0.09,1.5855 0.35507,3.3069 1.29976,4.5833 0.76342,1.0316 2.03313,1.6378 3.23527,2.087 1.38869,0.5189 2.92409,0.741 4.40246,0.6307 1.49831,-0.1118 3.0262,-0.5263 4.31761,-1.2942 1.48014,-0.8801 2.88205,-2.1065 3.66653,-3.6394 0.78396,-1.532 1.29615,-3.4495 0.8066,-5.0993 -0.65948,-2.22253 -2.54698,-4.20593 -4.65757,-5.16497 -1.9765,-0.89822 -4.44568,-0.76992 -6.51216,-0.1044 z"
       id="path3919"
       inkscape:connector-curvature="0"
       sodipodi:nodetypes="aaaaaaaaaaa" />
    <path
       sodipodi:nodetypes="aaaaaaaaaaaaa"
       inkscape:connector-curvature="0"
       id="path5002"
       d="m -54.733289,779.73446 c -1.609664,1.15226 -2.946404,2.71186 -4.006507,4.38366 -1.339177,2.1119 -2.708853,4.44275 -2.850617,6.93944 -0.1388,2.44449 0.547457,5.09854 2.00398,7.06662 1.177051,1.59045 3.134697,2.52505 4.988161,3.21762 2.141094,0.80005 4.508389,1.14255 6.78774,0.97251 2.310103,-0.17234 4.66582,-0.81149 6.656923,-1.99546 2.282086,-1.35699 4.358713,-3.29312 5.653089,-5.6113 1.248931,-2.23678 2.0087,-4.93576 1.747413,-7.48424 -0.25128,-2.45088 -1.360096,-4.96859 -3.106065,-6.70685 -1.557535,-1.55066 -3.855018,-2.24436 -5.995222,-2.74433 -2.247548,-0.52505 -4.655159,-0.64444 -6.921133,-0.20567 -1.770797,0.34288 -3.49112,1.11812 -4.957762,2.168 z"
       style="fill:url(#radialGradient5006);fill-opacity:1;stroke:#c994c7;stroke-width:0.69999999;stroke-linecap:butt;stroke-linejoin:miter;stroke-miterlimit:4;stroke-opacity:1;stroke-dasharray:none" />
    <path
       style="fill:url(#radialGradient5008);fill-opacity:1;stroke:#c994c7;stroke-width:0.1;stroke-linecap:butt;stroke-linejoin:miter;stroke-miterlimit:4;stroke-opacity:1;stroke-dasharray:none"
       d="m -50.814466,785.20699 c -1.861814,0.59962 -3.509287,1.95598 -4.709625,3.50035 -0.995338,1.28062 -1.756934,2.88153 -1.848881,4.50085 -0.09003,1.58547 0.355077,3.30686 1.299761,4.58334 0.763424,1.03154 2.033131,1.63772 3.23527,2.08692 1.388691,0.5189 2.924095,0.74104 4.402459,0.63075 1.498308,-0.11178 3.026202,-0.52632 4.317612,-1.29423 1.480136,-0.88013 2.882052,-2.10645 3.666535,-3.63942 0.783959,-1.53196 1.296145,-3.44949 0.806598,-5.09928 -0.659483,-2.22249 -2.546982,-4.20587 -4.657569,-5.16493 -1.976508,-0.89815 -4.445686,-0.76987 -6.51216,-0.10435 z"
       id="path5004"
       inkscape:connector-curvature="0"
       sodipodi:nodetypes="aaaaaaaaaaa" />
  </g>
</svg>
