<?xml version="1.0" encoding="iso-8859-1"?>
<svg version="1.1" id="Capa_1" xmlns="http://www.w3.org/2000/svg" xmlns:xlink="http://www.w3.org/1999/xlink" x="0px" y="0px"
	 viewBox="0 0 612 612" style="enable-background:new 0 0 612 612;" xml:space="preserve">
<g>
	<g>
		<path d="M532.342,228.371c-12.566-10.319-30.124-16.561-43.94-20.879c-13.65-4.266-26.452-11.117-37.199-20.593
			c-11.896-10.489-16.94-23.83-26.712-35.538c-13.116-15.715-46.717-17.149-65.109-25.737
			c-21.948-10.248-39.241-26.247-50.959-47.498c-0.004-0.008-0.009-0.016-0.013-0.024c-7.125-12.921-16.155-23.402-32.533-22.198
			c-21.248,1.562-27.428,21.526-32.696,38.871c-5.885,19.376-9.921,39.416-22.972,55.579c-9.552,11.828-22.187,20.482-37.557,25.721
			c-9.61,3.275-19.692,5.023-29.717,6.471c-11.029,1.593-12.943-0.612-14.054,11.034c-0.697,7.31-1.565,16.408-4.183,25.962
			c-9.492,34.633-33.528,54.141-51.088,68.387c-13.228,10.732-32.007,32.956-13.972,47.91c20.258,16.798,54.007,16.538,77.15,28.898
			c7.049,3.765,12.87,8.028,17.795,13.033c9.145,9.294,14.63,20.741,15.864,33.103c1.039,10.413-0.994,20.878-6.042,31.105
			c-7.439,15.064-19.044,26.863-35.478,36.073c-11.08,6.21-22.252,10.11-33.059,13.884c-20.925,7.304-44.384,23.089-29.97,48.893
			c5.632,10.083,16.515,15.505,27.844,15.505c0.381,0,0.767-0.006,1.148-0.017c8.363-0.25,17.13-3.358,26.069-9.236
			c27.553-18.118,28.865-54.255,52.606-75.322c7.345-6.518,15.959-11.36,26.335-14.805c7.116-2.363,14.576-3.561,22.173-3.561
			c21.583,0,42.893,10.195,55.594,27.766c11.475,15.874,12.346,36.228,28.158,48.928c26.206,21.049,49.959,9.073,68.83-13.673
			c12.484-15.047,29.144-26.657,47.687-32.915c15.368-5.184,32.444-3.143,47.798-8.872c24.622-9.187,17.512-29.346,4.057-46.554
			c-19.198-24.553-30.502-57.292-16.689-87.208c9.843-21.317,29.878-33.811,50.78-42.464c18.175-7.524,32.816-22.378,29.87-43.883
			C546.668,243.645,540.577,235.133,532.342,228.371z M191.501,309.329c-12.857,0-23.28-10.423-23.28-23.28
			c0-12.857,10.423-23.28,23.28-23.28s23.28,10.423,23.28,23.28C214.781,298.907,204.359,309.329,191.501,309.329z M349.927,277.147
			c-18.158,0-32.878-14.72-32.878-32.879s14.72-32.879,32.878-32.879s32.878,14.72,32.878,32.879S368.086,277.147,349.927,277.147z"
			/>
		<path d="M566.602,185.238c-17.871-14.216-39.992-24.175-61.579-30.922c-18.388-5.747-24.625-20.076-35.528-34.225
			c-11.252-14.601-25.413-25.134-43.05-30.787c-17.49-5.605-40.716-6.896-55.084-19.218c-11.887-10.195-17.183-26.079-26.82-38.12
			c-12.343-15.422-30.216-26.324-49.578-30.24c-41.844-8.463-80.197,14.995-96.201,53.357c-7.587,18.185-7.801,39.966-19.621,56.204
			c-9.655,13.263-24.818,14.97-39.914,17.001c-16.926,2.278-33.994,8.003-44.541,22.23c-14.577,19.662-7.687,45.775-20.55,66.791
			c-10.058,16.433-26.008,28.196-39.707,41.743C4.429,288.719-2.418,334.41,24.715,368.596c15.25,19.213,35.976,27.146,59.028,32.39
			c9.897,2.251,39.201,2.343,38.144,17.426c-0.852,12.12-25.307,17.752-34.39,20.922c-16.413,5.729-33.384,11.653-45.925,24.611
			c-22.911,23.671-31.368,60.301-20.061,91.382c9.345,25.688,31.652,46.278,58.005,53.541c21.533,5.934,45.028,3.161,65.416-5.961
			c31.065-13.899,56.115-41.934,68.252-73.551c3.852-10.035,9.493-23.852,23.328-19.496c9.991,3.147,10.132,13.879,13.431,22.043
			c4.106,10.165,10.899,19.59,18.201,27.681c14.311,15.86,33.109,27.858,53.491,34.237c21.843,6.835,45.456,6.155,66.128-4.095
			c22.544-11.177,31.151-33.175,50.336-47.132c13.95-10.149,30.793-10.44,47.05-13.23c39.741-6.821,69.573-40.769,67.052-81.765
			c-1.095-17.803-8.193-32.876-18.71-46.957c-10.785-14.439-22.778-34.053-2.153-46.349c19.909-11.87,38.468-17.667,53.168-37.287
			c14.691-19.609,22.192-45.062,19.106-69.482C600.252,220.916,585.906,200.593,566.602,185.238z M560.697,292.353
			c-6.373,10.18-15.068,18.112-25.144,22.939c-2.655,1.272-5.751,2.555-8.746,3.796c-6.287,2.608-13.406,5.561-19.965,9.729
			c-18.155,11.541-26.598,32.115-21.624,53.173c7.632,32.315,46.737,54.285,29.806,90.79c-5.332,11.497-11.605,15.684-16.475,18.048
			c-7.478,3.631-16.839,5.076-27.68,6.75c-14.952,2.308-31.891,4.922-48.339,14.39c-12.853,7.4-20.599,19.91-29.538,31.257
			c-22.069,28.015-65.119,24.789-90.955,4.047c-12.108-9.721-20.594-22.936-24.537-38.217c-5.392-20.891-27.333-34.733-48.49-33.63
			c-21.957,1.146-37.532,17.42-45.293,36.806c-8.608,21.501-21.007,40.336-40.648,53.254c-12.399,8.154-25.018,12.478-37.507,12.852
			c-0.594,0.018-1.212,0.028-1.82,0.028c-14.379,0-27.752-5.167-37.656-14.552c-19.456-18.439-21.331-51.738-3.84-72.274
			c16.456-19.319,44.737-20.845,65.909-32.71c26.096-14.625,43.036-46.671,15.608-69.72c-12.114-10.18-28.036-14.324-43.379-18.194
			c-17.04-4.298-40.184-9.882-51.261-24.799c-21.494-28.947-2.439-56.599,20.599-75.291c16.921-13.729,36.101-29.29,43.726-57.099
			c4.547-16.587-0.404-41.266,18.357-50.071c17.655-8.286,38.655-5.807,55.926-14.891c16.948-8.915,25.94-26.521,31.255-44.175
			c4.76-15.812,7.736-32.466,16.175-46.66c10.253-17.248,30.43-25.925,50.086-23.399c25.816,3.318,36.295,22.84,48.713,43.163
			c10.564,17.287,23.787,27.516,43.245,32.883l35.367,9.752c18.663,5.146,27.439,11.691,34.779,25.94
			c10.295,20.015,26.316,33.537,47.621,40.195c21.292,6.654,38.399,15.043,50.848,24.933
			C570.653,231.126,577.655,265.267,560.697,292.353z"/>
	</g>
</g>
<g>
</g>
<g>
</g>
<g>
</g>
<g>
</g>
<g>
</g>
<g>
</g>
<g>
</g>
<g>
</g>
<g>
</g>
<g>
</g>
<g>
</g>
<g>
</g>
<g>
</g>
<g>
</g>
<g>
</g>
</svg>
