<?xml version="1.0" ?><!DOCTYPE svg  PUBLIC '-//W3C//DTD SVG 1.1//EN'  'http://www.w3.org/Graphics/SVG/1.1/DTD/svg11.dtd'><svg enable-background="new 0 0 300 300" height="300px" version="1.1" viewBox="0 0 300 300" width="300px" xml:space="preserve" xmlns="http://www.w3.org/2000/svg" xmlns:xlink="http://www.w3.org/1999/xlink"><g id="Layer_1"><g><g><path d="M93.308,29.029c17.171-2.944,35.281-2.87,52.456,0c6.306,1.054,9.008-8.582,2.658-9.643     c-19.08-3.189-38.696-3.271-57.772,0C84.303,20.475,87.002,30.11,93.308,29.029L93.308,29.029z" fill="#2F353A"/></g></g><g><g><path d="M86.979,24.049c-0.014,19.872,0.363,39.753,0.163,59.624c-0.107,10.676-0.637,21.342-1.05,32.009     c-0.307,7.915,0.325,16.131-0.856,23.975c-0.95,6.306,8.685,9.018,9.643,2.658c1.123-7.457,0.877-15.022,1.056-22.54     c0.259-10.837,0.968-21.66,1.158-32.5c0.369-21.064-0.127-42.157-0.113-63.226C96.983,17.601,86.983,17.601,86.979,24.049     L86.979,24.049z" fill="#2F353A"/></g></g><g><g><path d="M88.728,145.807c19.402,5.749,39.012,2.885,58.676,0.819c6.346-0.667,6.411-10.673,0-10     c-18.746,1.969-37.508,5.022-56.018-0.462C85.188,134.328,82.559,143.979,88.728,145.807L88.728,145.807z" fill="#2F353A"/></g></g><g><g><path d="M137.191,40.236c-7.44,4.052-13.286,9.646-16.356,17.632c-2.966,7.713-0.51,16.386,3.456,23.203     c7.815,13.432,22.83,17.738,36.513,10.575c13.07-6.842,18.21-22.218,13.687-35.837c-5.202-15.663-21.389-20.295-36.105-16.077     c-6.188,1.773-3.554,11.423,2.658,9.643c9.561-2.74,19.859-1.149,23.804,9.092c3.563,9.252,0.104,18.76-8.153,24.002     c-8.363,5.309-17.359,2.701-22.882-5.073c-8.125-11.436-2.955-22.328,8.426-28.525C147.902,45.786,142.855,37.151,137.191,40.236     L137.191,40.236z" fill="#2F353A"/></g></g><g><g><path d="M142.216,25.571c-0.241,5.442,0.386,10.788,0.418,16.219c0.039,6.447,10.039,6.45,10,0     c-0.033-5.431-0.659-10.776-0.418-16.219C152.502,19.121,142.5,19.148,142.216,25.571L142.216,25.571z" fill="#2F353A"/></g></g><g><g><path d="M143.044,90.046c0.362,6.65,0.116,13.348,0.036,20.002c-0.126,10.42,0.26,20.837,0.285,31.257     c0.488-1.179,0.976-2.357,1.464-3.536c-0.16,0.134-0.32,0.267-0.48,0.4c1.622-0.429,3.243-0.857,4.865-1.286     c-0.16-0.027-0.321-0.054-0.481-0.08c-6.306-1.051-9.008,8.585-2.658,9.643c6.333,1.055,7.308-3.908,7.272-8.987     c-0.053-7.796-0.284-15.589-0.303-23.386c-0.019-8.002,0.436-16.032,0-24.028C152.694,83.634,142.692,83.6,143.044,90.046     L143.044,90.046z" fill="#2F353A"/></g></g><g><g><path d="M71.642,259.807c1.954,2.778,4.929,2.684,7.976,2.762c4.33,0.111,8.665,0.072,12.996,0.049     c12.116-0.066,24.231-0.275,36.344-0.516c10.119-0.201,20.211-0.711,30.325-0.995c21.162-0.595,42.327,0.677,63.488,0.713     c6.449,0.011,6.448-9.989,0-10c-20.004-0.034-39.995-1.071-60.001-0.786c-10.054,0.144-20.103,0.779-30.16,0.993     c-11.439,0.244-22.88,0.434-34.321,0.546c-4.836,0.048-9.673,0.079-14.51,0.053c-1.698-0.01-3.396-0.031-5.093-0.082     c-0.494-0.015-0.987-0.038-1.48-0.066c-1.615-0.092,2.119,0.929,3.072,2.283C76.599,249.529,67.923,254.518,71.642,259.807     L71.642,259.807z" fill="#2F353A"/></g></g><g><g><path d="M70.959,257.283c-0.714,9.089-0.546,18.178-0.961,27.274c-0.125,2.727,2.369,4.997,5,5     c25.8,0.029,51.578-0.277,77.376,0.061c13.079,0.171,26.157-0.255,39.235,0.002c10.837,0.213,21.727-0.613,32.547,0.076     c3.275,0.209,5.647-3.346,4.821-6.329c-2.273-8.207-1.505-18.085-1.208-26.548c0.227-6.452-9.774-6.43-10,0     c-0.331,9.434-0.972,20.046,1.565,29.206c1.607-2.109,3.214-4.22,4.821-6.329c-10.197-0.649-20.416,0.263-30.621-0.026     c-13.716-0.389-27.441,0.098-41.161-0.052c-25.799-0.282-51.576-0.031-77.376-0.061c1.667,1.667,3.333,3.333,5,5     c0.415-9.097,0.247-18.186,0.961-27.274C81.465,250.85,71.461,250.898,70.959,257.283L70.959,257.283z" fill="#2F353A"/></g></g><g><g><path d="M151.66,53.367c-7.987-1.507-15.617,3.297-17.296,11.351c-1.706,8.182,4.517,14.263,12.126,14.913     c6.585,0.562,14.578-3.217,15.146-10.485c0.521-6.649-3.033-14.849-10.308-15.823c-1.594-0.213-1.573,2.289,0,2.5     c5.531,0.741,7.901,7.567,7.883,12.37c-0.023,5.867-5.711,8.499-10.776,8.935c-6.438,0.554-11.201-3.272-11.755-9.785     c-0.65-7.64,7.465-12.857,14.316-11.564C152.571,56.075,153.243,53.666,151.66,53.367L151.66,53.367z" fill="#2F353A"/></g></g><g><g><path d="M107.309,24.203c0.133-5.127,1.146-10.195,1.602-15.297c-0.625,0.625-1.25,1.25-1.875,1.875     c9.186-0.101,18.368-0.279,27.552,0c-0.625-0.625-1.25-1.25-1.875-1.875c0.619,4.92,0.342,9.896,0.961,14.816     c0.297,2.366,4.051,2.395,3.75,0c-0.619-4.92-0.342-9.896-0.961-14.816c-0.131-1.04-0.755-1.841-1.875-1.875     c-9.184-0.279-18.367-0.101-27.552,0c-1.091,0.012-1.783,0.848-1.875,1.875c-0.456,5.102-1.469,10.17-1.602,15.297     C103.496,26.622,107.247,26.616,107.309,24.203L107.309,24.203z" fill="#2F353A"/></g></g><g><g><path d="M106.122,145.152c-0.089,3.958-0.562,7.891-0.32,11.854c0.058,0.951,0.811,1.966,1.875,1.875     c8.664-0.743,17.303,1.075,25.95,0c1.314-0.163,1.992-1.065,1.808-2.373c-0.562-4.001-0.514-7.977-0.253-11.997     c0.157-2.416-3.594-2.4-3.75,0c-0.284,4.375-0.222,8.652,0.387,12.993c0.603-0.791,1.206-1.582,1.808-2.373     c-8.647,1.075-17.286-0.743-25.95,0c0.625,0.625,1.25,1.25,1.875,1.875c-0.242-3.963,0.231-7.896,0.32-11.854     C109.927,142.732,106.176,142.737,106.122,145.152L106.122,145.152z" fill="#2F353A"/></g></g><g><g><path d="M140.355,242.42c9.139-0.019,18.288-0.318,27.425-0.074c6.222,0.167,12.413,0.396,18.641,0.271     c5.696-0.113,12.095-1.132,17.721-0.113c6.304,1.142,8.997-8.495,2.658-9.643c-5.648-1.022-11.684-0.593-17.394-0.338     c-7.004,0.314-14.037,0.187-21.037-0.155c-9.313-0.455-18.694,0.034-28.014,0.053     C133.907,232.433,133.906,242.433,140.355,242.42L140.355,242.42z" fill="#2F353A"/></g></g><g><g><path d="M162.317,83.113c-0.728-0.206-1.35-0.296-2.1-0.387c0,1.25,0,2.5,0,3.75     c10.017-0.286,16.961,5.951,23.839,12.43c6.115,5.76,10.543,13.147,13.427,20.989c5.905,16.053,4.243,35.029-4.566,49.698     c-9.106,15.165-29.238,22.349-46.045,23.827c-20.086,1.766-40.371,0.028-60.492-0.017c-2.418-0.005-2.418,3.745,0,3.75     c11.654,0.026,23.301,0.489,34.953,0.65c10.56,0.146,21.515,0.427,31.939-1.487c18.077-3.32,36.337-11.505,44.989-28.646     c8.205-16.256,8.351-35.932,1.332-52.594c-3.35-7.951-8.524-14.972-14.941-20.71c-7.225-6.459-14.271-11.932-24.435-11.641     c-2.479,0.071-2.341,3.466,0,3.75c0.368,0.084,0.735,0.169,1.104,0.253C163.652,87.388,164.642,83.77,162.317,83.113     L162.317,83.113z" fill="#2F353A"/></g></g><g><g><path d="M141.684,223.003c1.071,10.868,1.89,21.762,2.243,32.679c0.078,2.412,3.828,2.42,3.75,0     c-0.353-10.917-1.171-21.811-2.243-32.679C145.199,220.619,141.447,220.597,141.684,223.003L141.684,223.003z" fill="#2F353A"/></g></g><g><g><path d="M194.225,206.022c0.937,16.284,2.572,32.756,6.795,48.555c0.623,2.334,4.241,1.343,3.615-0.996     c-4.14-15.49-5.742-31.595-6.66-47.559C197.836,203.619,194.086,203.605,194.225,206.022L194.225,206.022z" fill="#2F353A"/></g></g><g><g><path d="M143.238,221.128c-9.019,0.001-17.99,0.181-26.991,0.746c-10.276,0.646-20.674,1.639-30.818-0.679     c0.459,0.603,0.917,1.205,1.376,1.808c0.92-9.218,0.594-18.5,1.45-27.725c0.223-2.408-3.529-2.387-3.75,0     c-0.855,9.225-0.53,18.507-1.45,27.725c-0.079,0.793,0.627,1.637,1.376,1.808c9.35,2.137,18.886,1.664,28.384,1.042     c10.151-0.665,20.249-0.974,30.423-0.975C145.657,224.878,145.657,221.128,143.238,221.128L143.238,221.128z" fill="#2F353A"/></g></g><g><g><path d="M171.769,60.426c-0.367-0.492-0.714-0.955-1.134-1.4c0,0.884,0,1.768,0,2.651     c-0.168,0.181-0.336,0.362-0.503,0.542c1.184,0.192,2.373-0.49,2.373-1.808c0-0.16,0-0.32,0-0.48     c-0.625,0.625-1.25,1.25-1.875,1.875c13.012-1.492,25.51,10.094,34.003,18.506c10.681,10.578,18.164,22.52,21.329,37.364     c3.509,16.453,1.823,34.747-3.937,50.49c-5.333,14.576-15.847,26.348-27.252,36.529c-1.807,1.614,0.854,4.257,2.652,2.652     c12.068-10.775,22.312-22.962,28.216-38.185c6.518-16.805,7.332-36.562,3.599-54.069c-3.26-15.284-11.992-27.566-22.906-38.375     c-8.901-8.816-22.181-20.214-35.704-18.664c-1.015,0.116-1.875,0.765-1.875,1.875c0,0.16,0,0.32,0,0.48     c0.791-0.603,1.582-1.206,2.373-1.808c-1.34-0.217-2.053-0.422-3.146,0.422c-0.826,0.638-0.632,1.981,0,2.651     c0.183,0.214,0.365,0.428,0.548,0.642C169.959,64.232,173.218,62.366,171.769,60.426L171.769,60.426z" fill="#2F353A"/></g></g><g><g><path d="M119.418,9.472c0,3.951,0,7.902,0,11.854c0,2.418,3.75,2.418,3.75,0c0-3.951,0-7.902,0-11.854     C123.168,7.054,119.418,7.054,119.418,9.472L119.418,9.472z" fill="#2F353A"/></g></g><g><g><path d="M124.672,8.654c-1.416,0.795-2.241,1.845-2.784,3.364c-0.648,1.813,1.872,3.108,3.134,1.824     c0.696-0.708,1.293-1.407,1.735-2.301c-1.143-0.481-2.285-0.963-3.427-1.445c-0.721,2.316-1.619,4.763-1.349,7.226     c0.153,1.394,2.068,2.778,3.201,1.326c1.584-2.03,1.966-4.24,1.991-6.773c0.021-2.182-3.034-2.467-3.683-0.499     c-0.754,2.288-1.435,4.634-1.349,7.067c0.047,1.315,1.154,2.003,2.374,1.808c3.563-0.569,3.912-5.233,4.354-8.037     c0.371-2.36-3.224-3.384-3.616-0.997c-0.444,2.705-1.175,5.507-0.32,8.205c0.342,1.078,1.719,1.84,2.754,1.121     c2.551-1.772,2.846-4.653,2.851-7.546c-1.25,0-2.5,0-3.75,0c0.064,2.189-0.686,4.281,0.067,6.425     c0.367,1.045,1.707,1.875,2.754,1.121c2.761-1.989,2.816-5.063,3.011-8.187c-1.25,0-2.5,0-3.75,0     c-0.017,2.109-0.087,4.173,0.228,6.265c0.212,1.409,2.248,1.779,3.134,0.827c1.837-1.974,1.558-4.43,1.51-6.932     c-1.25,0-2.5,0-3.75,0c0.157,2.507,0.022,5.021,0.16,7.528c0.093,1.694,2.667,2.775,3.494,0.946     c1.464-3.239,0.505-6.422,0.029-9.774c-0.116-0.818-1.054-1.368-1.808-1.376c-1.494-0.017-2.996-0.154-4.485,0     c-2.38,0.247-2.405,3.999,0,3.75c1.49-0.154,2.992-0.017,4.485,0c-0.603-0.459-1.206-0.917-1.808-1.376     c0.303,2.133,1.29,4.803,0.349,6.884c1.165,0.315,2.33,0.631,3.494,0.946c-0.138-2.508-0.003-5.021-0.16-7.528     c-0.149-2.392-3.796-2.436-3.75,0c0.023,1.236,0.512,3.288-0.412,4.281c1.044,0.276,2.089,0.551,3.134,0.827     c-0.261-1.734-0.107-3.522-0.094-5.268c0.019-2.437-3.601-2.393-3.75,0c-0.089,1.439,0.183,3.985-1.153,4.948     c0.918,0.374,1.836,0.747,2.754,1.121c-0.609-1.736,0.12-3.632,0.067-5.428c-0.071-2.412-3.746-2.423-3.75,0     c-0.002,1.277,0.212,3.47-0.994,4.308c0.918,0.374,1.836,0.747,2.754,1.121c-0.642-2.025-0.013-4.18,0.32-6.211     c-1.206-0.333-2.411-0.665-3.616-0.997c-0.188,1.2-0.25,5.181-1.734,5.418c0.791,0.603,1.583,1.206,2.374,1.808     c-0.075-2.105,0.563-4.092,1.215-6.07c-1.228-0.166-2.456-0.333-3.683-0.499c-0.014,1.379,0.002,2.975-0.892,4.122     c1.067,0.442,2.134,0.884,3.201,1.326c-0.234-2.14,0.588-4.217,1.215-6.229c0.627-2.013-2.479-3.363-3.427-1.445     c-0.307,0.62-0.665,1.05-1.148,1.542c1.044,0.608,2.089,1.216,3.134,1.824c0.219-0.613,0.515-0.816,1.061-1.123     C128.672,10.708,126.783,7.468,124.672,8.654L124.672,8.654z" fill="#2F353A"/></g></g><g><g><path d="M120.412,147.586c2.418,0,2.418-3.75,0-3.75S117.993,147.586,120.412,147.586L120.412,147.586z" fill="#2F353A"/></g></g><g><g><path d="M119.086,147.037c0.32,0.32,0.641,0.641,0.961,0.961c0.722,0.723,1.929,0.723,2.651,0     c0.723-0.722,0.723-1.929,0-2.651c-0.32-0.32-0.641-0.641-0.961-0.961c-0.722-0.723-1.929-0.723-2.651,0     C118.363,145.108,118.363,146.315,119.086,147.037L119.086,147.037z" fill="#2F353A"/></g></g><g><g><path d="M119.498,146.913c-0.151,3.193,0.638,6.424,0.067,9.594c-0.426,2.363,3.188,3.374,3.616,0.996     c0.64-3.551-0.102-7.026,0.067-10.59C123.362,144.494,119.611,144.505,119.498,146.913L119.498,146.913z" fill="#2F353A"/></g></g><g><g><path d="M123.598,145.966c-0.83,1.166-1.351,2.41-1.631,3.812c-0.477,2.389,2.779,3.257,3.616,0.997     c0.177-0.479,0.303-0.963,0.481-1.441c-1.206-0.333-2.411-0.665-3.616-0.997c-0.639,2.51-1.597,4.604-1.202,7.244     c0.198,1.322,2.311,1.89,3.134,0.828c1.717-2.217,2.164-4.601,2.472-7.333c-1.25,0-2.5,0-3.75,0     c-0.029,1.453-0.206,2.87-0.414,4.307c-0.281,1.941,2.367,3.494,3.427,1.444c1.021-1.973,1.42-4.022,1.457-6.232     c0.041-2.42-3.701-2.415-3.75,0c-0.047,2.332-0.408,4.633-0.24,6.968c0.092,1.281,1.573,2.516,2.821,1.619     c3.437-2.468,3.542-6.777,4.707-10.492c-1.228-0.166-2.456-0.333-3.683-0.499c-0.062,2.661-0.659,5.268-0.721,7.929     c-0.047,2.022,2.464,2.346,3.494,0.946c1.359-1.847,1.656-4.014,1.938-6.232c-1.25,0-2.5,0-3.75,0     c-0.003,1.475-0.052,2.869-0.414,4.307c-0.525,2.088,2.291,3.243,3.427,1.444c0.949-1.503,1.191-3.287,0.977-5.031     c-0.286-2.331-3.75-2.484-3.75,0c0,2.002,0,4.004,0,6.007c0,2.418,3.75,2.418,3.75,0c0-0.24,0-0.48,0-0.721     c0-0.909-0.59-1.488-1.376-1.808c-1.824-0.742-2.612-3.24-3.43-4.849c-0.878-1.729-2.083-3.262-4.019-3.803     c-1.286-0.359-2.227,0.625-2.374,1.808c-0.247,1.998-0.186,4.057-0.179,6.066c0.005,1.41-0.322,3.739,0.728,4.872     c1.646,1.777,4.292-0.881,2.651-2.652c0.189,0.204,0.488,1.193,0.452,0.767c-0.031-0.365-0.039-0.732-0.051-1.099     c-0.03-0.909-0.032-1.82-0.032-2.729c0-1.731-0.033-3.503,0.18-5.224c-0.791,0.603-1.583,1.206-2.374,1.808     c1.531,0.428,2.25,3.069,2.91,4.328c1.04,1.983,2.454,3.476,4.539,4.322c-0.459-0.603-0.917-1.205-1.376-1.808     c0,0.24,0,0.48,0,0.721c0,2.418,3.75,2.418,3.75,0c0-2.003,0-4.005,0-6.007c-1.25,0-2.5,0-3.75,0     c0.137,1.115,0.153,2.161-0.465,3.138c1.143,0.481,2.285,0.963,3.427,1.444c0.441-1.755,0.544-3.499,0.547-5.303     c0.005-2.488-3.455-2.324-3.75,0c-0.202,1.584-0.462,3.03-1.426,4.339c1.165,0.315,2.33,0.631,3.494,0.946     c0.062-2.661,0.659-5.268,0.721-7.929c0.051-2.173-3.063-2.478-3.683-0.499c-0.752,2.399-0.764,6.658-2.983,8.251     c0.94,0.54,1.881,1.079,2.821,1.619c-0.167-2.335,0.193-4.637,0.24-6.968c-1.25,0-2.5,0-3.75,0     c-0.026,1.538-0.231,2.96-0.945,4.339c1.143,0.481,2.285,0.963,3.427,1.444c0.255-1.765,0.512-3.518,0.547-5.303     c0.049-2.472-3.486-2.341-3.75,0c-0.18,1.599-0.352,3.364-1.373,4.681c1.044,0.276,2.089,0.552,3.134,0.828     c-0.262-1.748,0.779-3.592,1.202-5.251c0.606-2.38-2.787-3.23-3.616-0.997c-0.177,0.479-0.304,0.963-0.481,1.441     c1.206,0.333,2.411,0.665,3.616,0.997c0.223-1.12,0.592-1.988,1.253-2.917C128.242,145.884,124.988,144.014,123.598,145.966     L123.598,145.966z" fill="#2F353A"/></g></g><g><g><path d="M147.645,59.196c-4.635-0.393-7.582,4.304-7.583,8.484c-0.001,4.437,4.422,6.555,8.3,6.24     c4.222-0.344,7.076-3.466,6.979-7.653c-0.101-4.347-3.371-8.111-7.861-7.186c-0.79,0.163-0.455,1.367,0.332,1.205     c4.111-0.847,6.209,2.985,6.292,6.56c0.076,3.251-2.439,5.177-5.374,5.771c-3.078,0.623-6.328-0.805-7.27-3.895     c-1.145-3.758,2.216-8.613,6.185-8.276C148.449,60.514,148.442,59.263,147.645,59.196L147.645,59.196z" fill="#2F353A"/></g></g><g><g><path d="M153.057,61.876c1.378-0.854,2.555-2,3.994-2.756c0.714-0.375,0.082-1.454-0.631-1.079     c-1.439,0.756-2.616,1.902-3.994,2.756C151.742,61.22,152.369,62.302,153.057,61.876L153.057,61.876z" fill="#2F353A"/></g></g><g><g><path d="M154.468,62.438c0.044,0.356-0.412,0.51-0.075,0.332c0.133-0.07,0.276-0.121,0.417-0.175     c0.363-0.14,0.733-0.265,1.101-0.395c0.706-0.249,1.467-0.478,2.106-0.876c0.683-0.425,0.056-1.507-0.631-1.079     c-0.787,0.491-1.752,0.725-2.618,1.037c-0.467,0.168-1.637,0.452-1.55,1.156C153.315,63.227,154.566,63.237,154.468,62.438     L154.468,62.438z" fill="#2F353A"/></g></g><g><g><path d="M155.122,66.559c1.025-0.589,2.707-0.177,3.817-0.051c0.8,0.091,0.791-1.16,0-1.25     c-1.394-0.158-3.162-0.518-4.448,0.222C153.793,65.881,154.422,66.961,155.122,66.559L155.122,66.559z" fill="#2F353A"/></g></g><g><g><path d="M155.398,67.799c-0.188,0.115-0.162,0.03-0.001,0.056c0.144,0.023,0.284,0.062,0.425,0.097     c0.421,0.105,0.835,0.243,1.248,0.377c0.701,0.228,1.394,0.486,2.101,0.695c0.774,0.229,1.104-0.978,0.332-1.205     c-0.896-0.265-1.771-0.596-2.663-0.875c-0.565-0.177-1.502-0.574-2.072-0.224C154.082,67.141,154.71,68.222,155.398,67.799     L155.398,67.799z" fill="#2F353A"/></g></g><g><g><path d="M150.262,58.92c0.734-0.046,0.484,0.756,0.559,0.305c0.032-0.194,0.082-0.385,0.13-0.576     c0.107-0.429,0.239-0.852,0.371-1.274c0.233-0.744,0.481-1.49,0.782-2.21c0.312-0.743-0.898-1.064-1.205-0.332     c-0.272,0.651-2.317,5.442-0.637,5.337C151.063,60.12,151.067,58.87,150.262,58.92L150.262,58.92z" fill="#2F353A"/></g></g><g><g><path d="M149.074,59.517c-0.202-0.658-0.007-1.523,0.057-2.193c0.092-0.957,0.227-1.914,0.241-2.875     c0.012-0.807-1.238-0.805-1.25,0c-0.015,0.961-0.146,1.92-0.241,2.875c-0.08,0.797-0.253,1.74-0.012,2.525     C148.104,60.618,149.311,60.29,149.074,59.517L149.074,59.517z" fill="#2F353A"/></g></g><g><g><path d="M145.154,59.918c-0.8-1.292-0.922-2.854-1.452-4.258c-0.282-0.747-1.49-0.423-1.205,0.332     c0.569,1.51,0.715,3.164,1.578,4.557C144.498,61.233,145.58,60.606,145.154,59.918L145.154,59.918z" fill="#2F353A"/></g></g><g><g><path d="M143.415,60.659c-1.446-0.842-2.25-2.38-3.082-3.771c-0.413-0.691-1.494-0.063-1.079,0.631     c0.945,1.583,1.887,3.263,3.53,4.219C143.482,62.145,144.111,61.064,143.415,60.659L143.415,60.659z" fill="#2F353A"/></g></g><g><g><path d="M137.01,63.316c1.115,0.428,2.191,0.95,3.306,1.378c0.753,0.29,1.077-0.919,0.332-1.205     c-1.115-0.428-2.19-0.951-3.306-1.378C136.588,61.822,136.265,63.031,137.01,63.316L137.01,63.316z" fill="#2F353A"/></g></g><g><g><path d="M136.184,65.141c-0.141,0.024-0.325,0.037-0.447,0.124c-0.475,0.34-0.353,1.18,0.315,1.165     c1.562-0.035,3.205-0.184,4.734-0.497c0.79-0.161,0.455-1.366-0.332-1.205c-1.416,0.289-2.954,0.419-4.402,0.452     c0.105,0.388,0.21,0.776,0.315,1.165c-0.099,0.068-0.05,0.068,0.148,0.002C137.309,66.208,136.972,65.003,136.184,65.141     L136.184,65.141z" fill="#2F353A"/></g></g><g><g><path d="M140.316,68.31c-1.221,0.397-2.468,0.686-3.719,0.964c-0.787,0.175-0.453,1.38,0.332,1.205     c1.252-0.278,2.499-0.566,3.719-0.964C141.411,69.267,141.084,68.06,140.316,68.31L140.316,68.31z" fill="#2F353A"/></g></g><g><g><path d="M140.591,69.963c-1.308,0.52-2.445,1.383-3.444,2.364c-0.576,0.565,0.309,1.449,0.884,0.884     c0.835-0.819,1.795-1.606,2.893-2.042C141.663,70.875,141.341,69.666,140.591,69.963L140.591,69.963z" fill="#2F353A"/></g></g><g><g><path d="M143.048,72.328c-0.441,1.138-1.043,2.207-1.59,3.295c-0.361,0.718,0.717,1.351,1.079,0.631     c0.597-1.187,1.236-2.353,1.716-3.594C144.544,71.907,143.335,71.584,143.048,72.328L143.048,72.328z" fill="#2F353A"/></g></g><g><g><path d="M144.563,73.017c-0.373,1.323-0.716,2.711-0.744,4.092c-0.016,0.807,1.234,0.805,1.25,0     c0.025-1.27,0.357-2.543,0.699-3.76C145.987,72.572,144.781,72.242,144.563,73.017L144.563,73.017z" fill="#2F353A"/></g></g><g><g><path d="M148.833,73.185c-0.188,1.311-0.48,2.811,0,4.09c0.28,0.748,1.489,0.424,1.205-0.332     c-0.399-1.064-0.157-2.332,0-3.426C150.152,72.729,148.948,72.39,148.833,73.185L148.833,73.185z" fill="#2F353A"/></g></g><g><g><path d="M149.797,73.349c0.177,0.61,0.535,1.186,0.85,1.731c0.371,0.64,0.768,1.312,1.278,1.851     c0.556,0.586,1.438-0.299,0.885-0.884c-0.402-0.424-0.7-0.957-1-1.455c-0.294-0.49-0.647-1.021-0.808-1.575     C150.778,72.245,149.572,72.573,149.797,73.349L149.797,73.349z" fill="#2F353A"/></g></g><g><g><path d="M153.253,71.656c1.138,0.67,1.725,1.984,2.766,2.795c0.629,0.489,1.52-0.389,0.885-0.884     c-1.138-0.885-1.765-2.251-3.02-2.99C153.188,70.167,152.559,71.248,153.253,71.656L153.253,71.656z" fill="#2F353A"/></g></g><g><g><path d="M154.571,70.829c-0.135,0.083,0.036,0.015,0.141,0.032c0.168,0.028,0.333,0.079,0.497,0.125     c0.406,0.115,0.802,0.267,1.196,0.416c0.785,0.294,1.558,0.648,2.368,0.868c0.779,0.212,1.109-0.994,0.332-1.205     c-0.952-0.259-1.859-0.684-2.784-1.023c-0.662-0.243-1.699-0.708-2.381-0.292C153.254,70.169,153.882,71.25,154.571,70.829     L154.571,70.829z" fill="#2F353A"/></g></g><g><g><path d="M91.668,125.085c8.364,3.952,19.083,3.092,28.102,3.417c9.97,0.359,21.415,1.126,30.507-3.738     c1.422-0.76,0.159-2.918-1.262-2.158c-8.651,4.627-19.752,3.73-29.246,3.396c-8.512-0.3-18.973,0.641-26.84-3.076     C91.48,122.243,90.211,124.397,91.668,125.085L91.668,125.085z" fill="#2F353A"/></g></g><g><g><path d="M92.299,116.926c3.953-0.172,8.371,1.564,12.31,2.11c5.006,0.693,10.091,0.947,15.136,1.177     c10.796,0.491,21.566-1.386,31.834-4.612c1.533-0.482,0.878-2.896-0.665-2.411c-10.166,3.195-20.505,4.792-31.17,4.523     c-6.047-0.153-12.175-0.668-18.143-1.641c-3.086-0.502-6.146-1.784-9.303-1.646C90.693,114.496,90.687,116.997,92.299,116.926     L92.299,116.926z" fill="#2F353A"/></g></g><g><g><path d="M91.658,36.512c17.854,0.542,35.746-3.025,53.49,0.276c1.576,0.293,2.249-2.116,0.665-2.411     c-17.988-3.346-36.059,0.186-54.155-0.365C90.045,33.963,90.05,36.463,91.658,36.512L91.658,36.512z" fill="#2F353A"/></g></g><g><g><path d="M103.589,23.332c0.096,0.105-0.18,4.371-0.235,5.469c-0.172,3.463-0.448,6.922-0.703,10.379     c-0.667,9.059-0.288,18.161-0.466,27.242c-0.485,24.702,1.285,49.673-1.846,74.244c-0.203,1.596,2.299,1.577,2.5,0     c3.284-25.773,1.442-52.094,1.917-78.016c0.163-8.887-0.027-17.683,0.621-26.546c0.243-3.321,0.477-6.645,0.591-9.973     c0.045-1.323,0.384-3.479-0.611-4.566C104.266,20.372,102.503,22.145,103.589,23.332L103.589,23.332z" fill="#2F353A"/></g></g><g><g><path d="M106.235,129.949c-0.925-0.038-1.535,0.645-1.396,1.554c0.129,0.848,0.848,1.554,1.691,1.664     c0.985,0.128,2.097-0.654,1.916-1.714c-0.173-1.01-1.271-1.591-2.21-1.624c-0.807-0.028-0.804,1.222,0,1.25     c0.388,0.013,0.762,0.189,0.962,0.531c0.137,0.234-0.397,0.327-0.581,0.318c-0.242-0.012-0.458-0.34-0.524-0.535     c-0.044-0.129-0.031-0.219-0.04-0.2c-0.037,0.08,0.064-0.036,0.003,0c-0.049,0.03,0.171,0.005,0.18,0.006     C107.041,131.232,107.038,129.982,106.235,129.949L106.235,129.949z" fill="#2F353A"/></g></g><g><g><path d="M107.15,111.83c-1.363,0.323-1.319,2.138-0.27,2.825c0.698,0.457,1.634,0.499,2.193-0.203     c0.482-0.605,0.59-1.416,0.266-2.119c-0.411-0.891-1.487-0.77-2.219-0.44c-0.734,0.33-0.098,1.407,0.631,1.079     c0.093-0.042,0.191-0.068,0.291-0.092c-0.048,0.012,0.219,0.005,0.087-0.014c0.149,0.021,0.049,0.002,0.113,0.042     c-0.042-0.026-0.036-0.035-0.008,0.009c0.032,0.052,0.046,0.117,0.049,0.235c0.003,0.122-0.009,0.181-0.079,0.375     c-0.059,0.162-0.164,0.235-0.344,0.228c-0.184-0.007-0.818-0.614-0.378-0.718C108.267,112.849,107.934,111.644,107.15,111.83     L107.15,111.83z" fill="#2F353A"/></g></g><g><g><path d="M76.415,267.604c4.11-1.447,8.614-1.048,12.89-0.792c5.418,0.323,10.802,0.31,16.23,0.257     c12.994-0.126,25.978-0.229,38.972-0.085c24.834,0.275,49.664,1.021,74.492,1.643c0.807,0.021,0.805-1.229,0-1.25     c-25.477-0.638-50.953-1.381-76.437-1.664c-12.995-0.145-25.982-0.001-38.977,0.125c-5.263,0.051-10.458-0.048-15.708-0.361     c-3.934-0.234-8.027-0.404-11.794,0.923C75.328,266.665,75.652,267.873,76.415,267.604L76.415,267.604z" fill="#2F353A"/></g></g><g><g><path d="M189.103,277.101c5.24,1.243,10.563,0.464,15.889,0.545c5.355,0.081,10.64,0.787,15.943-0.295     c0.79-0.161,0.455-1.365-0.332-1.205c-5.154,1.051-10.404,0.443-15.611,0.25c-5.229-0.194-10.391,0.726-15.557-0.5     C188.651,275.709,188.318,276.915,189.103,277.101L189.103,277.101z" fill="#2F353A"/></g></g><g><g><path d="M189.769,274.123c10.462-1.04,21.028,0.186,31.5,0.5c0.807,0.024,0.804-1.226,0-1.25     c-10.472-0.314-21.038-1.54-31.5-0.5C188.975,272.952,188.967,274.203,189.769,274.123L189.769,274.123z" fill="#2F353A"/></g></g><g><g><path d="M189.519,270.623c10.669,0.028,21.331,0.472,32,0.5c0.807,0.002,0.806-1.248,0-1.25     c-10.669-0.028-21.331-0.472-32-0.5C188.712,269.371,188.713,270.621,189.519,270.623L189.519,270.623z" fill="#2F353A"/></g></g><g><g><path d="M190.603,264.851c5.001,0.734,10.043,0.54,15.076,0.862c5.292,0.34,10.49,1.189,15.756,0.138     c0.79-0.157,0.455-1.362-0.332-1.205c-4.627,0.924-9.282,0.367-13.933-0.058c-5.407-0.495-10.853-0.152-16.235-0.942     C190.146,263.529,189.808,264.734,190.603,264.851L190.603,264.851z" fill="#2F353A"/></g></g><g><g><path d="M177.185,249.101c3.905-0.977,8.05,0.07,12.016,0.034c3.703-0.034,7.653-0.765,11.319-0.034     c0.787,0.157,1.122-1.048,0.332-1.205c-3.771-0.752-7.84-0.118-11.651-0.011c-4.115,0.115-8.29-1.004-12.348,0.011     C176.07,248.091,176.402,249.296,177.185,249.101L177.185,249.101z" fill="#2F353A"/></g></g><g><g><path d="M176.685,245.601c3.295-1.204,7.066-0.548,10.501-0.478c4.454,0.092,8.874,0.757,13.333,0.834     c0.807,0.014,0.806-1.236,0-1.25c-4.804-0.083-9.567-0.757-14.368-0.855c-3.262-0.066-6.664-0.602-9.798,0.544     C175.602,244.67,175.926,245.878,176.685,245.601L176.685,245.601z" fill="#2F353A"/></g></g><g><g><path d="M176.128,230.44c0.251-0.284,3.739-0.004,4.518,0.008c2.669,0.04,5.337,0.115,8.006,0.155     c1.406,0.021,7.729,0.926,8.574-0.79c0.354-0.721-0.724-1.354-1.08-0.631c-0.562,1.14-11.044,0.106-12.426,0.076     c-1.559-0.033-7.266-1.072-8.477,0.297C174.712,230.158,175.593,231.045,176.128,230.44L176.128,230.44z" fill="#2F353A"/></g></g><g><g><path d="M175.203,226.125c-0.069,0.049-0.139,0.098-0.208,0.146c-0.504,0.353-0.331,1.139,0.315,1.164     c7.231,0.283,14.464-0.153,21.708,0.021c0.807,0.02,0.805-1.23,0-1.25c-7.246-0.175-14.472,0.263-21.708-0.021     c0.105,0.389,0.21,0.776,0.315,1.165c0.069-0.049,0.139-0.098,0.208-0.146C176.488,226.746,175.865,225.661,175.203,226.125     L175.203,226.125z" fill="#2F353A"/></g></g><g><g><path d="M174.834,224.038c3.161-1.341,6.756-0.352,10.019-0.081c3.823,0.317,7.67,0.063,11.5,0.166     c0.807,0.021,0.805-1.229,0-1.25c-4.58-0.123-9.143,0.137-13.707-0.385c-2.918-0.334-5.688-0.698-8.442,0.47     C173.463,223.272,174.101,224.349,174.834,224.038L174.834,224.038z" fill="#2F353A"/></g></g><g><g><path d="M174.686,219.957c7.44,0.302,14.958,1.578,22.333-0.022c0.788-0.171,0.454-1.376-0.332-1.205     c-7.255,1.574-14.684,0.274-22.001-0.022C173.879,218.675,173.883,219.925,174.686,219.957L174.686,219.957z" fill="#2F353A"/></g></g><g><g><path d="M173.686,216.623c5.112-0.027,10.221-0.166,15.333-0.166c2.404,0,5.273,0.411,7.636-0.181     c0.194-0.048,0.401-0.231,0.437-0.437c0.011-0.059,0.021-0.117,0.03-0.176c0.135-0.788-1.069-1.126-1.205-0.332     c-0.041,0.238-20.589,0.032-22.23,0.041C172.88,215.377,172.879,216.627,173.686,216.623L173.686,216.623z" fill="#2F353A"/></g></g><g><g><path d="M173.519,213.123c4.463,0,8.92-0.082,13.374,0.206c2.78,0.181,6.616,1.016,9.292-0.062     c0.738-0.297,0.416-1.507-0.332-1.205c-2.776,1.117-7.031,0.143-9.936-0.046c-4.123-0.268-8.269-0.144-12.398-0.144     C172.713,211.873,172.713,213.123,173.519,213.123L173.519,213.123z" fill="#2F353A"/></g></g><g><g><path d="M173.353,209.79c4.827-0.574,9.803,0.034,14.631,0.443c2.494,0.212,6.756,1.157,9.018-0.361     c0.665-0.447,0.04-1.53-0.631-1.08c-2.311,1.553-7.667,0.257-10.285,0.028c-4.196-0.366-8.537-0.779-12.732-0.28     C172.563,208.634,172.553,209.885,173.353,209.79L173.353,209.79z" fill="#2F353A"/></g></g><g><g><path d="M172.686,206.623c8.175,0.12,16.401,1.712,24.499-0.022c0.788-0.169,0.454-1.374-0.332-1.205     c-7.977,1.708-16.117,0.096-24.167-0.022C171.879,205.361,171.88,206.611,172.686,206.623L172.686,206.623z" fill="#2F353A"/></g></g><g><g><path d="M172.519,203.957c9.019-0.797,18.046,1.627,27-0.189c0.79-0.16,0.455-1.365-0.332-1.205     c-8.834,1.792-17.767-0.642-26.668,0.145C171.722,202.777,171.715,204.028,172.519,203.957L172.519,203.957z" fill="#2F353A"/></g></g><g><g><path d="M179.019,201.268c2.867-1.178,6.7-0.446,9.726-0.325c4.552,0.182,9.252,0.847,13.774,0.158     c0.795-0.121,0.456-1.325-0.332-1.205c-4.664,0.71-9.674-0.053-14.375-0.24c-2.896-0.116-6.362-0.728-9.125,0.407     C177.951,200.364,178.272,201.574,179.019,201.268L179.019,201.268z" fill="#2F353A"/></g></g><g><g><path d="M183.519,198.435c6.982-2.437,14.542-0.14,21.667,0.355c0.805,0.056,0.8-1.194,0-1.25     c-7.257-0.505-14.888-2.792-21.999-0.311C182.431,197.493,182.756,198.701,183.519,198.435L183.519,198.435z" fill="#2F353A"/></g></g><g><g><path d="M188.186,194.79c4.849,0,9.688-0.006,14.534,0.148c1.771,0.057,4.447,0.641,6.09-0.097     c0.369-0.166,0.394-0.723,0.126-0.981c-0.047-0.046-0.095-0.092-0.142-0.138c-0.58-0.56-1.465,0.323-0.885,0.885     c0.22-0.748-0.006-1.012-0.679-0.792c-0.499-0.006-0.998-0.02-1.496-0.041c-1.436-0.052-2.87-0.081-4.305-0.127     c-4.414-0.141-8.828-0.107-13.244-0.107C187.38,193.54,187.38,194.79,188.186,194.79L188.186,194.79z" fill="#2F353A"/></g></g><g><g><path d="M191.519,191.79c4.336,0,8.634-0.075,12.949,0.384c1.754,0.187,4.389,0.988,6.044,0.25     c0.188-0.084,0.318-0.341,0.31-0.539c-0.004-0.073-0.007-0.146-0.011-0.22c-0.038-0.803-1.288-0.806-1.25,0     c-0.066-1.427-16.535-1.125-18.042-1.125C190.713,190.54,190.713,191.79,191.519,191.79L191.519,191.79z" fill="#2F353A"/></g></g><g><g><path d="M195.686,188.956c5.585,0.119,11.091,1.685,16.666,0.645c0.792-0.147,0.456-1.353-0.332-1.205     c-5.442,1.016-10.881-0.572-16.334-0.689C194.879,187.688,194.881,188.938,195.686,188.956L195.686,188.956z" fill="#2F353A"/></g></g><g><g><path d="M198.352,186.29c5.455-0.021,10.933-0.295,16.334,0.644c0.788,0.137,1.125-1.067,0.332-1.205     c-5.516-0.959-11.093-0.71-16.666-0.688C197.546,185.043,197.545,186.293,198.352,186.29L198.352,186.29z" fill="#2F353A"/></g></g><g><g><path d="M201.352,183.934c2.548-0.432,5.098,0.114,7.659-0.044c2.335-0.145,4.748-0.606,7.009,0.211     c0.76,0.275,1.084-0.934,0.332-1.205c-2.1-0.76-4.338-0.502-6.521-0.321c-2.949,0.245-5.89-0.341-8.812,0.154     C200.226,182.863,200.563,184.067,201.352,183.934L201.352,183.934z" fill="#2F353A"/></g></g><g><g><path d="M203.703,180.205c1.701,0.979,3.908,0.688,5.773,0.528c3.014-0.258,6.18-1.055,9.209-0.633     c0.788,0.109,1.128-1.095,0.332-1.205c-2.196-0.306-4.408,0.008-6.596,0.263c-2.322,0.271-5.932,1.21-8.088-0.033     C203.635,178.722,203.005,179.803,203.703,180.205L203.703,180.205z" fill="#2F353A"/></g></g><g><g><path d="M206.02,176.768c2.557,0.516,5.212,0.13,7.805,0.507c2.286,0.333,4.66,0.692,6.843-0.236     c0.739-0.315,0.102-1.392-0.631-1.08c-2.223,0.946-5.019,0.231-7.304-0.094c-2.119-0.302-4.277,0.122-6.381-0.302     C205.564,175.403,205.229,176.608,206.02,176.768L206.02,176.768z" fill="#2F353A"/></g></g><g><g><path d="M207.519,173.956c4.343,0.049,8.657,0.618,13,0.667c0.807,0.009,0.806-1.241,0-1.25     c-4.343-0.049-8.657-0.618-13-0.667C206.712,172.697,206.713,173.947,207.519,173.956L207.519,173.956z" fill="#2F353A"/></g></g><g><g><path d="M209.186,170.768c4.516,0.812,9.106,0.552,13.666,0.855c0.805,0.054,0.8-1.196,0-1.25     c-4.443-0.296-8.933-0.021-13.334-0.811C208.729,169.421,208.393,170.625,209.186,170.768L209.186,170.768z" fill="#2F353A"/></g></g><g><g><path d="M209.852,167.456c4.681,0.037,9.335,0.488,14,0.834c0.805,0.06,0.799-1.19,0-1.25     c-4.665-0.346-9.319-0.797-14-0.834C209.045,166.199,209.046,167.449,209.852,167.456L209.852,167.456z" fill="#2F353A"/></g></g><g><g><path d="M211.02,163.768c4.689,0.781,9.457,0.586,14.166,1.188c0.798,0.103,0.788-1.149,0-1.25     c-4.597-0.588-9.257-0.381-13.834-1.144C210.563,162.431,210.226,163.636,211.02,163.768L211.02,163.768z" fill="#2F353A"/></g></g><g><g><path d="M211.852,160.456c4.476-0.08,8.875,0.775,13.334,1c0.806,0.041,0.802-1.21,0-1.25     c-4.459-0.225-8.858-1.08-13.334-1C211.047,159.221,211.045,160.471,211.852,160.456L211.852,160.456z" fill="#2F353A"/></g></g><g><g><path d="M213.02,156.768c4.518,0.961,9.733,0.846,14.165-0.5c0.77-0.233,0.441-1.44-0.332-1.205     c-4.192,1.273-9.216,1.411-13.501,0.5C212.565,155.396,212.231,156.6,213.02,156.768L213.02,156.768z" fill="#2F353A"/></g></g><g><g><path d="M213.186,153.29c4.609,0.158,9.221,0.167,13.833,0.167c0.806,0,0.806-1.25,0-1.25     c-4.612,0-9.224-0.009-13.833-0.167C212.379,152.013,212.382,153.263,213.186,153.29L213.186,153.29z" fill="#2F353A"/></g></g><g><g><path d="M214.019,149.957c4.571-0.011,9.123-0.09,13.667,0.5c0.798,0.104,0.788-1.147,0-1.25     c-4.544-0.59-9.096-0.511-13.667-0.5C213.213,148.709,213.212,149.959,214.019,149.957L214.019,149.957z" fill="#2F353A"/></g></g><g><g><path d="M214.686,146.124c2.652-0.201,5.329-0.267,7.979-0.005c2.185,0.216,4.405,0.567,6.521-0.185     c0.754-0.268,0.43-1.476-0.332-1.205c-2.237,0.795-4.708,0.286-7.009,0.059c-2.357-0.233-4.802-0.092-7.158,0.086     C213.887,144.934,213.881,146.185,214.686,146.124L214.686,146.124z" fill="#2F353A"/></g></g><g><g><path d="M214.409,141.94c1.077,1.265,4.944,0.865,6.354,0.916c2.714,0.097,5.747,0.343,8.422-0.255     c0.787-0.176,0.453-1.381-0.332-1.205c-2.183,0.488-4.648,0.276-6.865,0.241c-1.208-0.02-5.837,0.426-6.693-0.581     C214.771,140.442,213.891,141.331,214.409,141.94L214.409,141.94z" fill="#2F353A"/></g></g><g><g><path d="M214.352,138.957c5.058-0.13,10.11,0.143,15.167,0.167c0.807,0.004,0.806-1.246,0-1.25     c-5.057-0.024-10.109-0.297-15.167-0.167C213.547,137.728,213.545,138.978,214.352,138.957L214.352,138.957z" fill="#2F353A"/></g></g><g><g><path d="M214.686,135.601c4.683,1.325,9.576-0.055,14.334,0.667c0.788,0.12,1.127-1.084,0.332-1.205     c-4.743-0.72-9.683,0.648-14.334-0.667C214.24,134.176,213.911,135.382,214.686,135.601L214.686,135.601z" fill="#2F353A"/></g></g><g><g><path d="M214.186,131.934c4.812,0.884,9.649-1.208,14.5-0.5c0.788,0.115,1.127-1.089,0.332-1.205     c-4.848-0.708-9.72,1.378-14.5,0.5C213.729,130.584,213.394,131.789,214.186,131.934L214.186,131.934z" fill="#2F353A"/></g></g><g><g><path d="M213.519,126.957c5.274-0.303,10.554-0.178,15.833-0.167c0.807,0.002,0.806-1.248,0-1.25     c-5.279-0.011-10.559-0.136-15.833,0.167C212.718,125.752,212.713,127.003,213.519,126.957L213.519,126.957z" fill="#2F353A"/></g></g><g><g><path d="M212.852,122.29c4.949,0.036,9.885,0.464,14.834,0.5c0.807,0.006,0.806-1.244,0-1.25     c-4.949-0.036-9.885-0.464-14.834-0.5C212.045,121.034,212.046,122.284,212.852,122.29L212.852,122.29z" fill="#2F353A"/></g></g><g><g><path d="M211.686,118.767c5.041,1.771,10.617,0.752,15.833,0.689c0.806-0.01,0.807-1.26,0-1.25     c-5.097,0.061-10.579,1.083-15.501-0.645C211.255,117.294,210.93,118.502,211.686,118.767L211.686,118.767z" fill="#2F353A"/></g></g><g><g><path d="M211.352,116.29c3.31-0.026,6.638-0.314,9.942-0.07c1.72,0.127,3.885,0.653,5.558,0.047     c0.752-0.272,0.428-1.48-0.332-1.205c-1.694,0.613-4.134-0.012-5.892-0.142c-3.07-0.227-6.2,0.095-9.276,0.119     C210.546,115.046,210.545,116.296,211.352,116.29L211.352,116.29z" fill="#2F353A"/></g></g><g><g><path d="M210.353,112.934c5.577,0.822,11.171-1.629,16.667,0c0.774,0.23,1.104-0.977,0.332-1.205     c-5.54-1.643-11.073,0.824-16.667,0C209.896,111.613,209.558,112.817,210.353,112.934L210.353,112.934z" fill="#2F353A"/></g></g><g><g><path d="M209.186,109.457c5.519-0.114,11.023,0.383,16.499-0.522c0.794-0.131,0.456-1.335-0.332-1.205     c-5.359,0.886-10.768,0.366-16.167,0.478C208.381,108.223,208.379,109.473,209.186,109.457L209.186,109.457z" fill="#2F353A"/></g></g><g><g><path d="M207.686,105.791c5.498-0.297,10.997-0.179,16.5-0.167c0.807,0.001,0.806-1.249,0-1.25     c-5.503-0.012-11.002-0.13-16.5,0.167C206.884,104.584,206.88,105.834,207.686,105.791L207.686,105.791z" fill="#2F353A"/></g></g><g><g><path d="M205.852,101.601c4.983-1.715,10.548-0.071,15.667,0.022c0.807,0.015,0.805-1.235,0-1.25     c-5.251-0.096-10.881-1.74-15.999,0.022C204.762,100.657,205.088,101.864,205.852,101.601L205.852,101.601z" fill="#2F353A"/></g></g><g><g><path d="M203.519,98.457c3.411-0.128,6.739-0.595,10.164-0.456c2.776,0.112,5.446,0.229,8.169-0.399     c0.785-0.181,0.452-1.386-0.332-1.205c-2.978,0.688-5.96,0.43-8.98,0.308c-3.026-0.123-6.005,0.389-9.021,0.502     C202.715,97.237,202.712,98.487,203.519,98.457L203.519,98.457z" fill="#2F353A"/></g></g><g><g><path d="M201.685,95.434c5.585-0.865,11.367,0.861,16.834-1c0.759-0.258,0.433-1.466-0.332-1.205     c-5.439,1.851-11.261,0.137-16.834,1C200.558,94.352,200.896,95.556,201.685,95.434L201.685,95.434z" fill="#2F353A"/></g></g><g><g><path d="M198.185,92.101c5.659-1.671,11.692-0.86,17.501-0.811c0.807,0.007,0.806-1.243,0-1.25     c-5.929-0.051-12.058-0.85-17.833,0.855C197.081,91.124,197.41,92.33,198.185,92.101L198.185,92.101z" fill="#2F353A"/></g></g><g><g><path d="M196.185,89.268c5.749-2.136,11.877-0.683,17.834-1.342c0.792-0.087,0.801-1.338,0-1.25     c-6.074,0.672-12.306-0.792-18.166,1.387C195.104,88.341,195.428,89.55,196.185,89.268L196.185,89.268z" fill="#2F353A"/></g></g><g><g><path d="M193.019,86.268c5.841-1.05,11.781-0.72,17.667-1.312c0.794-0.08,0.802-1.331,0-1.25     c-5.998,0.603-12.047,0.286-17.999,1.356C191.894,85.206,192.23,86.41,193.019,86.268L193.019,86.268z" fill="#2F353A"/></g></g><g><g><path d="M189.686,83.624c6.428-0.024,12.866-0.339,19.166-1.689c0.788-0.169,0.454-1.374-0.332-1.205     c-6.192,1.327-12.518,1.621-18.834,1.645C188.88,82.376,188.879,83.626,189.686,83.624L189.686,83.624z" fill="#2F353A"/></g></g><g><g><path d="M187.226,80.647c1.263-1.759,8.106-0.678,9.946-0.603c2.897,0.118,5.965,0.528,8.847,0.057     c0.794-0.13,0.456-1.334-0.332-1.205c-3.831,0.626-8.058-0.123-11.916-0.214c-1.992-0.047-6.229-0.611-7.625,1.334     C185.675,80.672,186.76,81.295,187.226,80.647L187.226,80.647z" fill="#2F353A"/></g></g><g><g><path d="M180.353,77.957c7.864-0.893,15.775-0.577,23.666-1c0.802-0.043,0.806-1.293,0-1.25     c-7.891,0.423-15.802,0.107-23.666,1C179.562,76.796,179.553,78.047,180.353,77.957L180.353,77.957z" fill="#2F353A"/></g></g><g><g><path d="M176.853,75.624c7.479,0.042,14.794-1.454,22.166-2.522c0.795-0.115,0.456-1.319-0.332-1.205     c-7.262,1.052-14.468,2.519-21.834,2.478C176.046,74.369,176.047,75.619,176.853,75.624L176.853,75.624z" fill="#2F353A"/></g></g><g><g><path d="M174.185,72.934c7.054-1.53,14.318-1.475,21.501-1.478c0.806,0,0.806-1.25,0-1.25     c-7.298,0.002-14.668-0.033-21.833,1.522C173.064,71.9,173.398,73.104,174.185,72.934L174.185,72.934z" fill="#2F353A"/></g></g><g><g><path d="M174.019,69.291c3.388-0.273,6.702-0.871,10.111-0.807c3.447,0.065,6.782,0.429,10.223-0.027     c0.787-0.104,0.797-1.355,0-1.25c-3.421,0.453-6.79,0.184-10.223,0.027c-3.396-0.155-6.738,0.535-10.111,0.807     C173.221,68.105,173.215,69.355,174.019,69.291L174.019,69.291z" fill="#2F353A"/></g></g><g><g><path d="M172.687,64.601c2.833,0.388,5.651,0.106,8.499,0.189c3.225,0.095,6.27,0.855,9.499,0.311     c0.794-0.134,0.456-1.338-0.332-1.205c-2.697,0.455-5.335,0.022-8.021-0.266c-3.105-0.333-6.211,0.191-9.313-0.234     C172.23,63.288,171.891,64.492,172.687,64.601L172.687,64.601z" fill="#2F353A"/></g></g><g><g><path d="M122.52,135.601c6.68,1.503,14.206,1.977,20.832,0c0.771-0.23,0.442-1.436-0.332-1.205     c-6.38,1.903-13.737,1.446-20.168,0C122.067,134.219,121.733,135.424,122.52,135.601L122.52,135.601z" fill="#2F353A"/></g></g><g><g><path d="M123.019,132.457c7.314,0.009,14.601,0.047,21.833-1.189c0.793-0.136,0.456-1.34-0.332-1.205     c-7.123,1.218-14.3,1.154-21.501,1.145C122.213,131.206,122.213,132.456,123.019,132.457L123.019,132.457z" fill="#2F353A"/></g></g><g><g><path d="M122.353,124.457c7.277-0.093,15.411,1.214,22.5-0.522c0.783-0.191,0.451-1.397-0.332-1.205     c-6.912,1.692-15.051,0.387-22.167,0.478C121.547,123.217,121.546,124.467,122.353,124.457L122.353,124.457z" fill="#2F353A"/></g></g><g><g><path d="M122.686,115.624c4.185-0.025,8.366-0.199,12.549-0.298c3.268-0.078,6.62,0.395,9.784-0.557     c0.77-0.231,0.442-1.438-0.332-1.205c-3.456,1.04-7.446,0.464-11.02,0.549c-3.661,0.087-7.318,0.239-10.981,0.261     C121.88,114.378,121.879,115.628,122.686,115.624L122.686,115.624z" fill="#2F353A"/></g></g><g><g><path d="M122.204,109.792c0.01,0,0.021,0,0.031,0.001c-0.677,0.023-0.886,1.1-0.166,1.228     c3.217,0.574,6.524,0.162,9.766,0.076c4.444-0.117,8.907,0.312,13.351,0.359c0.807,0.009,0.806-1.241,0-1.25     c-3.947-0.042-7.886-0.291-11.833-0.333c-3.613-0.039-7.372,0.581-10.952-0.058c-0.055,0.409-0.11,0.818-0.166,1.228     c0.238-0.008,0.407-0.024,0.6-0.172C123.465,110.388,122.844,109.302,122.204,109.792L122.204,109.792z" fill="#2F353A"/></g></g><g><g><path d="M122.686,106.624c3.607,0.343,7.203,0.152,10.819,0.132c4.092-0.023,8.082,1.05,12.181,1.034     c0.806-0.003,0.806-1.253,0-1.25c-3.591,0.014-7.097-0.722-10.667-1c-4.104-0.319-8.219,0.225-12.333-0.166     C121.883,105.297,121.89,106.548,122.686,106.624L122.686,106.624z" fill="#2F353A"/></g></g><g><g><path d="M123.186,103.624c7.477-0.313,14.938-0.292,22.334,0.978c0.788,0.135,1.125-1.069,0.332-1.205     c-7.505-1.289-15.075-1.34-22.666-1.022C122.382,102.407,122.379,103.657,123.186,103.624L123.186,103.624z" fill="#2F353A"/></g></g><g><g><path d="M122.686,100.124c7.342,0.061,14.658,0.772,22,0.833c0.806,0.007,0.806-1.243,0-1.25     c-7.342-0.061-14.658-0.772-22-0.833C121.879,98.867,121.88,100.117,122.686,100.124L122.686,100.124z" fill="#2F353A"/></g></g><g><g><path d="M123.186,96.624c7.546-0.217,14.995,1.101,22.5,1.666c0.805,0.061,0.799-1.19,0-1.25     c-7.505-0.565-14.954-1.883-22.5-1.666C122.381,95.396,122.379,96.647,123.186,96.624L123.186,96.624z" fill="#2F353A"/></g></g><g><g><path d="M122.853,92.624c7.652-0.118,15.024,2.295,22.667,2.333c0.806,0.004,0.806-1.246,0-1.25     c-7.642-0.038-15.01-2.451-22.667-2.333C122.047,91.386,122.046,92.636,122.853,92.624L122.853,92.624z" fill="#2F353A"/></g></g><g><g><path d="M122.853,88.934c3.691,0.752,7.473,0.113,11.167,0.833c0.787,0.154,1.123-1.051,0.332-1.205     c-3.696-0.721-7.482-0.083-11.167-0.833C122.398,87.569,122.063,88.773,122.853,88.934L122.853,88.934z" fill="#2F353A"/></g></g><g><g><path d="M122.853,85.624c2.109-0.164,4.24,0.469,6.333,0.666c0.803,0.076,0.795-1.175,0-1.25     c-2.087-0.197-4.226-0.83-6.333-0.666C122.054,84.436,122.048,85.686,122.853,85.624L122.853,85.624z" fill="#2F353A"/></g></g><g><g><path d="M122.519,82.101c1.468-0.29,2.917-0.113,4.334,0.333c0.771,0.243,1.098-0.964,0.332-1.205     c-1.637-0.516-3.31-0.667-4.999-0.333C121.396,81.052,121.731,82.257,122.519,82.101L122.519,82.101z" fill="#2F353A"/></g></g><g><g><path d="M122.685,51.267c1.707-0.324,3.445-0.445,5.168-0.166c0.788,0.128,1.126-1.077,0.332-1.205     c-1.957-0.317-3.892-0.202-5.832,0.166C121.562,50.212,121.897,51.417,122.685,51.267L122.685,51.267z" fill="#2F353A"/></g></g><g><g><path d="M122.853,46.79c2.97,0.025,5.903,0.336,8.834,0.812c0.788,0.128,1.126-1.076,0.332-1.205     c-3.039-0.493-6.085-0.831-9.166-0.856C122.046,45.533,122.047,46.783,122.853,46.79L122.853,46.79z" fill="#2F353A"/></g></g><g><g><path d="M122.686,43.624c4.499,0.153,8.999,0.166,13.5,0.166c0.806,0,0.806-1.25,0-1.25     c-4.501,0-9.001-0.013-13.5-0.166C121.879,42.346,121.882,43.596,122.686,43.624L122.686,43.624z" fill="#2F353A"/></g></g><g><g><path d="M123.186,40.124c6.007,0.049,11.993,0.619,18,0.666c0.806,0.006,0.806-1.244,0-1.25     c-6.007-0.047-11.993-0.617-18-0.666C122.38,38.867,122.38,40.117,123.186,40.124L123.186,40.124z" fill="#2F353A"/></g></g><g><g><path d="M123.186,36.957c3.11,0.376,6.211,0.082,9.333,0.167c3.452,0.094,6.864,0.912,10.333,1     c0.807,0.021,0.805-1.229,0-1.25c-3.472-0.088-6.885-0.629-10.333-1c-3.097-0.333-6.219,0.21-9.333-0.167     C122.387,35.61,122.396,36.861,123.186,36.957L123.186,36.957z" fill="#2F353A"/></g></g><g><g><path d="M123.353,31.457c7.306,0.097,14.535,1.249,21.833,1.5c0.807,0.028,0.804-1.222,0-1.25     c-7.298-0.251-14.527-1.403-21.833-1.5C122.546,30.196,122.547,31.446,123.353,31.457L123.353,31.457z" fill="#2F353A"/></g></g></g><g id="Layer_2"/></svg>