<?xml version="1.0" encoding="iso-8859-1"?>
<!-- Generator: Adobe Illustrator 16.0.0, SVG Export Plug-In . SVG Version: 6.00 Build 0)  -->
<!DOCTYPE svg PUBLIC "-//W3C//DTD SVG 1.1//EN" "http://www.w3.org/Graphics/SVG/1.1/DTD/svg11.dtd">
<svg version="1.1" id="Capa_1" xmlns="http://www.w3.org/2000/svg" xmlns:xlink="http://www.w3.org/1999/xlink" x="0px" y="0px"
	 width="31.986px" height="31.986px" viewBox="0 0 31.986 31.986" style="enable-background:new 0 0 31.986 31.986;"
	 xml:space="preserve">
<g>
	<g>
		<path d="M4.675,7.016v12.747c0,0.021,0,0.042,0.001,0.062c0.045,0.789,0.731,2.277,3.007,2.277c2.107,0,2.908-1.423,3.023-2.177
			c0.006-0.054,0.038-0.108,0.038-0.163V7.016c0.41-0.128,0.738-0.541,0.738-1.031V4.824c0-0.593-0.497-1.091-1.089-1.091H4.971
			c-0.591,0-1.034,0.498-1.034,1.091v1.161C3.937,6.475,4.265,6.888,4.675,7.016z M5.003,5.204c0-0.201,0.144-0.323,0.346-0.323
			h4.667c0.203,0,0.4,0.122,0.4,0.323v0.409c0,0.201-0.198,0.334-0.4,0.334H9.999c-0.202,0-0.403,0.195-0.403,0.397v13.42
			c0,0-0.185,1.268-1.928,1.268c-1.862,0-1.927-1.268-1.927-1.268V6.343c0-0.202-0.174-0.397-0.375-0.397H5.349
			c-0.202,0-0.346-0.133-0.346-0.334V5.204z"/>
		<path d="M7.667,20.506c1.223,0,1.354-1.024,1.354-1.024v-3.366H6.315v3.366C6.315,19.481,6.362,20.506,7.667,20.506z"/>
		<path d="M13.04,7.016v12.747c0,0.021,0.012,0.042,0.013,0.062c0.045,0.789,0.738,2.277,3.013,2.277
			c2.106,0,2.898-1.423,3.014-2.177c0.008-0.054,0.029-0.108,0.029-0.163V7.016c0.41-0.128,0.738-0.541,0.738-1.031V4.824
			c0-0.593-0.475-1.091-1.065-1.091H13.36c-0.591,0-1.058,0.498-1.058,1.091v1.161C12.302,6.475,12.63,6.888,13.04,7.016z
			 M13.369,5.204c0-0.201,0.167-0.323,0.369-0.323h4.668c0.201,0,0.376,0.122,0.376,0.323v0.409c0,0.201-0.175,0.334-0.376,0.334
			h-0.018c-0.201,0-0.347,0.195-0.347,0.397v13.42c0,0-0.228,1.268-1.968,1.268c-1.863,0-1.969-1.268-1.969-1.268V6.343
			c0-0.202-0.149-0.397-0.351-0.397h-0.018c-0.202,0-0.369-0.133-0.369-0.334L13.369,5.204L13.369,5.204z"/>
		<path d="M16.074,20.506c1.223,0,1.395-1.024,1.395-1.024v-3.366h-2.788v3.366C14.681,19.481,14.769,20.506,16.074,20.506z"/>
		<path d="M21.488,7.016v12.747c0,0.021-0.004,0.042-0.002,0.062c0.045,0.789,0.729,2.277,3.005,2.277
			c2.106,0,2.868-1.423,2.985-2.177c0.006-0.054,0-0.108,0-0.163V7.016c0.489-0.128,0.817-0.541,0.817-1.031V4.824
			c0-0.593-0.505-1.091-1.099-1.091h-5.422c-0.592,0-1.024,0.498-1.024,1.091v1.161C20.75,6.475,21.078,6.888,21.488,7.016z
			 M21.816,5.204c0-0.201,0.136-0.323,0.336-0.323h4.67c0.201,0,0.324,0.122,0.324,0.323v0.409c0,0.201-0.123,0.334-0.324,0.334
			h-0.018c-0.203,0-0.396,0.195-0.396,0.397v13.42c0,0-0.186,1.268-1.928,1.268c-1.862,0-1.929-1.268-1.929-1.268V6.343
			c0-0.202-0.182-0.397-0.384-0.397H22.15c-0.201,0-0.336-0.133-0.336-0.334V5.204H21.816z"/>
		<path d="M24.48,20.506c1.223,0,1.354-1.024,1.354-1.024v-3.366h-2.707v3.366C23.128,19.481,23.175,20.506,24.48,20.506z"/>
		<polygon points="27.967,14.229 27.967,16.282 30.018,16.282 30.018,24.235 1.968,24.235 1.968,16.282 4.019,16.282 4.019,14.229 
			0,14.229 0,28.254 31.958,28.254 31.986,14.229 		"/>
	</g>
</g>
<g>
</g>
<g>
</g>
<g>
</g>
<g>
</g>
<g>
</g>
<g>
</g>
<g>
</g>
<g>
</g>
<g>
</g>
<g>
</g>
<g>
</g>
<g>
</g>
<g>
</g>
<g>
</g>
<g>
</g>
</svg>
